<svg width="460" height="210" fill="none" xmlns="http://www.w3.org/2000/svg"><g filter="url(#a)"><rect x="25" y="107" width="410" height="70" rx="20" fill="#fff"/><path d="M56.23 135.266h4.96v1.304h-6.513v-11.464h1.552v10.16Zm12.394 1.304h-.632a.75.75 0 0 1-.336-.064c-.085-.042-.141-.133-.168-.272l-.16-.752a9.81 9.81 0 0 1-.624.52c-.203.15-.416.278-.64.384a3.389 3.389 0 0 1-.72.232c-.25.054-.53.08-.84.08-.315 0-.61-.042-.888-.128a1.934 1.934 0 0 1-1.2-1.064 2.41 2.41 0 0 1-.176-.96c0-.32.088-.626.264-.92.176-.298.459-.562.848-.792.395-.229.91-.416 1.544-.56.635-.149 1.41-.234 2.328-.256v-.632c0-.629-.136-1.104-.408-1.424-.267-.325-.664-.488-1.192-.488-.347 0-.64.046-.88.136a3.19 3.19 0 0 0-.616.296c-.17.107-.32.206-.448.296a.636.636 0 0 1-.368.128.463.463 0 0 1-.256-.072.635.635 0 0 1-.168-.192l-.256-.456a4.64 4.64 0 0 1 1.448-.968 4.477 4.477 0 0 1 1.72-.32c.453 0 .856.075 1.208.224.352.15.648.358.888.624.24.267.421.59.544.968.123.379.184.795.184 1.248v5.184Zm-3.696-.872c.25 0 .48-.024.688-.072.208-.053.403-.125.584-.216a3.05 3.05 0 0 0 .528-.344c.17-.133.336-.285.496-.456v-1.688a11.47 11.47 0 0 0-1.672.16c-.459.08-.832.187-1.12.32-.288.134-.499.291-.632.472a1.031 1.031 0 0 0-.192.608c0 .214.035.398.104.552.07.155.163.283.28.384.117.096.256.168.416.216.16.043.333.064.52.064Zm10.493-5.896a.315.315 0 0 1-.296.176.553.553 0 0 1-.272-.088 5.317 5.317 0 0 0-.376-.192 2.947 2.947 0 0 0-.52-.2 2.402 2.402 0 0 0-.72-.096c-.24 0-.456.032-.648.096a1.565 1.565 0 0 0-.496.248 1.168 1.168 0 0 0-.312.376c-.07.139-.104.291-.104.456 0 .208.059.382.176.52.123.139.283.259.48.36.198.102.422.192.672.272.25.075.507.158.768.248.267.086.526.182.776.288.25.107.475.24.672.4.198.16.355.358.472.592.123.23.184.507.184.832 0 .374-.066.72-.2 1.04-.133.315-.33.59-.592.824-.261.23-.581.411-.96.544-.378.134-.816.2-1.312.2-.565 0-1.077-.09-1.536-.272a3.94 3.94 0 0 1-1.168-.712l.336-.544a.497.497 0 0 1 .152-.16.43.43 0 0 1 .232-.056c.096 0 .198.038.304.112.107.075.235.158.384.248.155.091.339.174.552.248.219.075.49.112.816.112.278 0 .52-.034.728-.104.208-.074.382-.173.52-.296.139-.122.24-.264.304-.424.07-.16.104-.33.104-.512a.822.822 0 0 0-.184-.552 1.416 1.416 0 0 0-.472-.376 3.54 3.54 0 0 0-.68-.272l-.776-.248c-.261-.085-.52-.181-.776-.288a2.826 2.826 0 0 1-.672-.416 1.921 1.921 0 0 1-.48-.608c-.117-.245-.176-.541-.176-.888 0-.309.064-.605.192-.888.128-.288.315-.538.56-.752.246-.218.547-.392.904-.52a3.617 3.617 0 0 1 1.224-.192 3.8 3.8 0 0 1 1.432.256c.427.166.795.395 1.104.688l-.32.52Zm4.754 6.896c-.64 0-1.134-.178-1.48-.536-.342-.357-.512-.872-.512-1.544v-4.96h-.976a.33.33 0 0 1-.216-.072c-.059-.053-.088-.133-.088-.24v-.568l1.328-.168.328-2.504a.287.287 0 0 1 .104-.192.322.322 0 0 1 .224-.08h.72v2.792h2.32v1.032h-2.32v4.864c0 .342.082.595.248.76a.863.863 0 0 0 .64.248c.15 0 .277-.018.384-.056.112-.042.208-.088.288-.136.08-.048.146-.09.2-.128.058-.042.11-.064.152-.064.074 0 .141.046.2.136l.416.68a2.69 2.69 0 0 1-.888.544 3.071 3.071 0 0 1-1.072.192Zm6.606-.128v-8.104h.848c.203 0 .33.099.384.296l.112.88a4.59 4.59 0 0 1 1.176-.944c.438-.24.942-.36 1.512-.36.443 0 .832.075 1.168.224.342.144.624.352.848.624.23.267.403.59.52.968.118.379.176.798.176 1.256v5.16h-1.424v-5.16c0-.613-.141-1.088-.424-1.424-.277-.341-.704-.512-1.28-.512-.421 0-.816.102-1.184.304a3.934 3.934 0 0 0-1.008.824v5.968h-1.424Zm14.843 0h-.632a.748.748 0 0 1-.336-.064c-.085-.042-.141-.133-.168-.272l-.16-.752a9.728 9.728 0 0 1-.624.52c-.203.15-.416.278-.64.384a3.389 3.389 0 0 1-.72.232c-.25.054-.53.08-.84.08-.315 0-.61-.042-.888-.128a1.934 1.934 0 0 1-1.2-1.064 2.41 2.41 0 0 1-.176-.96c0-.32.088-.626.264-.92.176-.298.459-.562.848-.792.395-.229.91-.416 1.544-.56.635-.149 1.41-.234 2.328-.256v-.632c0-.629-.136-1.104-.408-1.424-.267-.325-.664-.488-1.192-.488-.347 0-.64.046-.88.136a3.19 3.19 0 0 0-.616.296c-.17.107-.32.206-.448.296a.636.636 0 0 1-.368.128.463.463 0 0 1-.256-.072.635.635 0 0 1-.168-.192l-.256-.456a4.64 4.64 0 0 1 1.448-.968 4.477 4.477 0 0 1 1.72-.32c.453 0 .856.075 1.208.224.352.15.648.358.888.624.24.267.421.59.544.968.123.379.184.795.184 1.248v5.184Zm-3.696-.872c.25 0 .48-.024.688-.072.208-.053.403-.125.584-.216a3.05 3.05 0 0 0 .528-.344c.17-.133.336-.285.496-.456v-1.688a11.47 11.47 0 0 0-1.672.16c-.459.08-.832.187-1.12.32-.288.134-.499.291-.632.472a1.031 1.031 0 0 0-.192.608c0 .214.035.398.104.552.07.155.163.283.28.384.117.096.256.168.416.216.16.043.333.064.52.064Zm5.853.872v-8.104h.848c.203 0 .331.099.384.296l.104.832a4.205 4.205 0 0 1 1-.904 2.393 2.393 0 0 1 1.296-.352c.55 0 .992.152 1.328.456.342.304.587.715.736 1.232.112-.293.259-.546.44-.76.187-.213.395-.389.624-.528.23-.138.472-.24.728-.304.262-.064.526-.096.792-.096.427 0 .806.07 1.136.208.336.134.619.331.848.592.235.262.414.584.536.968.123.379.184.814.184 1.304v5.16h-1.424v-5.16c0-.634-.138-1.114-.416-1.44-.277-.33-.68-.496-1.208-.496-.234 0-.458.043-.672.128-.208.08-.392.2-.552.36-.16.16-.288.363-.384.608-.09.24-.136.52-.136.84v5.16h-1.424v-5.16c0-.65-.13-1.136-.392-1.456-.261-.32-.642-.48-1.144-.48-.352 0-.68.096-.984.288a3.2 3.2 0 0 0-.824.768v6.04h-1.424Zm16.349-8.232c.485 0 .933.083 1.344.248.411.16.765.395 1.064.704.299.304.531.683.696 1.136.171.448.256.96.256 1.536 0 .224-.024.374-.072.448-.048.075-.139.112-.272.112h-5.392c.011.512.08.958.208 1.336.128.379.304.696.528.952.224.251.491.44.8.568.309.123.656.184 1.04.184.357 0 .664-.04.92-.12a4.602 4.602 0 0 0 1.136-.536c.128-.085.237-.128.328-.128.117 0 .208.046.272.136l.4.52c-.176.214-.387.4-.632.56a3.975 3.975 0 0 1-.792.384 4.606 4.606 0 0 1-.864.224c-.299.054-.595.08-.888.08-.56 0-1.077-.093-1.552-.28a3.516 3.516 0 0 1-1.224-.832 3.893 3.893 0 0 1-.8-1.36c-.192-.538-.288-1.157-.288-1.856 0-.565.085-1.093.256-1.584a3.76 3.76 0 0 1 .752-1.272 3.388 3.388 0 0 1 1.192-.848 3.867 3.867 0 0 1 1.584-.312Zm.032 1.048c-.688 0-1.229.2-1.624.6-.395.395-.64.944-.736 1.648h4.408c0-.33-.045-.632-.136-.904a1.99 1.99 0 0 0-.4-.712 1.733 1.733 0 0 0-.648-.464 2.1 2.1 0 0 0-.864-.168Z" fill="#A0A3BD"/><path d="M57.155 155.52h.73c.254 0 .454-.03.6-.09.154-.066.297-.176.43-.33l4.77-5.4c.147-.166.287-.283.42-.35.14-.073.317-.11.53-.11h1.65l-5.46 6.17a4.15 4.15 0 0 1-.4.39c-.12.107-.25.194-.39.26.187.06.35.15.49.27.14.12.287.27.44.45l5.7 6.79h-1.68c-.126 0-.233-.01-.32-.03a.999.999 0 0 1-.23-.08.74.74 0 0 1-.17-.13 3.73 3.73 0 0 1-.16-.17l-4.95-5.69a1.979 1.979 0 0 0-.21-.2.755.755 0 0 0-.22-.15.892.892 0 0 0-.29-.08c-.107-.02-.24-.03-.4-.03h-.88v6.56h-1.93v-14.33h1.93v6.28Zm18.643 8.05h-.79a.934.934 0 0 1-.42-.08c-.106-.053-.176-.166-.21-.34l-.2-.94c-.266.24-.526.457-.78.65-.253.187-.52.347-.8.48a4.25 4.25 0 0 1-.9.29c-.313.067-.663.1-1.05.1-.393 0-.763-.053-1.11-.16a2.584 2.584 0 0 1-.89-.5 2.416 2.416 0 0 1-.61-.83c-.146-.34-.22-.74-.22-1.2 0-.4.11-.783.33-1.15.22-.373.574-.703 1.06-.99.494-.286 1.137-.52 1.93-.7.794-.186 1.764-.293 2.91-.32v-.79c0-.786-.17-1.38-.51-1.78-.333-.406-.83-.61-1.49-.61-.433 0-.8.057-1.1.17a3.96 3.96 0 0 0-.77.37c-.213.134-.4.257-.56.37a.799.799 0 0 1-.46.16.579.579 0 0 1-.32-.09.789.789 0 0 1-.21-.24l-.32-.57a5.791 5.791 0 0 1 1.81-1.21c.647-.266 1.364-.4 2.15-.4.567 0 1.07.094 1.51.28.44.187.81.447 1.11.78.3.334.527.737.68 1.21.154.474.23.994.23 1.56v6.48Zm-4.62-1.09c.314 0 .6-.03.86-.09.26-.066.504-.156.73-.27a3.84 3.84 0 0 0 .66-.43 5.33 5.33 0 0 0 .62-.57v-2.11c-.82.027-1.516.094-2.09.2-.573.1-1.04.234-1.4.4-.36.167-.623.364-.79.59-.16.227-.24.48-.24.76 0 .267.044.497.13.69.087.194.204.354.35.48.147.12.32.21.52.27.2.054.417.08.65.08Zm14.447 1.09c-.253 0-.413-.123-.48-.37l-.16-1.23c-.433.527-.93.95-1.49 1.27-.553.314-1.19.47-1.91.47-.58 0-1.106-.11-1.58-.33a3.31 3.31 0 0 1-1.21-.99c-.333-.433-.59-.973-.77-1.62-.18-.646-.27-1.39-.27-2.23 0-.746.1-1.44.3-2.08.2-.646.487-1.206.86-1.68.38-.473.84-.843 1.38-1.11.54-.273 1.153-.41 1.84-.41.62 0 1.15.107 1.59.32.44.207.834.5 1.18.88v-5.62h1.78v14.73h-1.06Zm-3.45-1.3c.58 0 1.087-.133 1.52-.4.44-.266.844-.643 1.21-1.13v-4.9c-.326-.44-.686-.746-1.08-.92a3.02 3.02 0 0 0-1.29-.27c-.947 0-1.673.337-2.18 1.01-.507.674-.76 1.634-.76 2.88 0 .66.057 1.227.17 1.7.114.467.28.854.5 1.16.22.3.49.52.81.66.32.14.687.21 1.1.21Zm11.502-8.99a4.47 4.47 0 0 1 1.68.31c.513.2.957.494 1.33.88.373.38.663.854.87 1.42.213.56.32 1.2.32 1.92 0 .28-.03.467-.09.56-.06.094-.173.14-.34.14h-6.74c.013.64.1 1.197.26 1.67.16.474.38.87.66 1.19.28.314.613.55 1 .71.387.154.82.23 1.3.23.447 0 .83-.05 1.15-.15.327-.106.607-.22.84-.34.233-.12.427-.23.58-.33.16-.106.297-.16.41-.16.147 0 .26.057.34.17l.5.65c-.22.267-.483.5-.79.7a4.96 4.96 0 0 1-.99.48 5.81 5.81 0 0 1-1.08.28c-.373.067-.743.1-1.11.1-.7 0-1.347-.116-1.94-.35a4.385 4.385 0 0 1-1.53-1.04c-.427-.46-.76-1.026-1-1.7-.24-.673-.36-1.446-.36-2.32 0-.706.107-1.366.32-1.98.22-.613.533-1.143.94-1.59a4.232 4.232 0 0 1 1.49-1.06c.587-.26 1.247-.39 1.98-.39Zm.04 1.31c-.86 0-1.537.25-2.03.75-.493.494-.8 1.18-.92 2.06h5.51c0-.413-.057-.79-.17-1.13a2.48 2.48 0 0 0-.5-.89 2.164 2.164 0 0 0-.81-.58 2.623 2.623 0 0 0-1.08-.21Zm8.203 3.79-3.41-4.94h1.71c.147 0 .253.024.32.07a.666.666 0 0 1 .18.2l2.48 3.8c.06-.186.147-.373.26-.56l2.18-3.2c.067-.093.133-.166.2-.22a.36.36 0 0 1 .25-.09h1.64l-3.41 4.84 3.55 5.29h-1.71a.52.52 0 0 1-.35-.11 1.204 1.204 0 0 1-.2-.26l-2.55-3.97a1.817 1.817 0 0 1-.21.52l-2.36 3.45c-.067.094-.14.18-.22.26-.073.074-.177.11-.31.11h-1.59l3.55-5.19Zm15.038.01c.093.16.173.33.24.51.073.174.143.35.21.53a8.612 8.612 0 0 1 .46-1.05l4.85-8.81c.087-.153.177-.246.27-.28.093-.033.227-.05.4-.05h1.43v14.33h-1.7v-10.53c0-.14.003-.29.01-.45.007-.16.017-.323.03-.49l-4.91 8.96c-.167.3-.4.45-.7.45h-.28c-.3 0-.533-.15-.7-.45l-5.02-8.99c.02.174.033.344.04.51.013.167.02.32.02.46v10.53h-1.7v-14.33h1.43c.173 0 .307.017.4.05.093.034.183.127.27.28l4.95 8.82Zm23.138 5.18h-1.5a.645.645 0 0 1-.42-.13.803.803 0 0 1-.24-.33l-1.34-3.46h-6.43l-1.34 3.46a.768.768 0 0 1-.24.32.634.634 0 0 1-.42.14h-1.5l5.73-14.33h1.97l5.73 14.33Zm-9.39-5.32h5.35l-2.25-5.83c-.146-.36-.29-.81-.43-1.35a16.86 16.86 0 0 1-.22.76 7.374 7.374 0 0 1-.2.6l-2.25 5.82Zm12.194-9.01c.173 0 .3.024.38.07.087.04.183.127.29.26l8.3 10.8a7.034 7.034 0 0 1-.04-.5c-.007-.166-.01-.326-.01-.48v-10.15h1.7v14.33h-.98a.858.858 0 0 1-.39-.08.99.99 0 0 1-.3-.27l-8.29-10.79c.013.167.023.33.03.49.007.16.01.307.01.44v10.21h-1.7v-14.33h1Z" fill="#1D1D1D"/></g><g filter="url(#b)"><rect x="25" y="17" width="410" height="70" rx="20" fill="#fff"/><path d="M55.477 35.106c.139 0 .24.019.304.056.07.032.147.102.232.208l6.64 8.64a5.47 5.47 0 0 1-.032-.4 9.493 9.493 0 0 1-.008-.384v-8.12h1.36V46.57h-.784a.692.692 0 0 1-.312-.064.8.8 0 0 1-.24-.216l-6.632-8.632a10.565 10.565 0 0 1 .032.744v8.168h-1.36V35.106h.8ZM72.5 46.57h-.632a.754.754 0 0 1-.336-.064c-.085-.042-.141-.133-.168-.272l-.16-.752c-.213.192-.421.366-.624.52-.203.15-.416.278-.64.384a3.446 3.446 0 0 1-.72.232c-.25.054-.53.08-.84.08-.315 0-.61-.042-.888-.128a1.936 1.936 0 0 1-1.2-1.064 2.41 2.41 0 0 1-.176-.96c0-.32.088-.626.264-.92.176-.298.459-.562.848-.792.395-.229.91-.416 1.544-.56.635-.149 1.41-.234 2.328-.256v-.632c0-.629-.136-1.104-.408-1.424-.267-.325-.664-.488-1.192-.488a2.5 2.5 0 0 0-.88.136c-.235.086-.44.184-.616.296-.17.107-.32.206-.448.296a.641.641 0 0 1-.368.128.463.463 0 0 1-.256-.072.642.642 0 0 1-.168-.192l-.256-.456c.448-.432.93-.754 1.448-.968a4.471 4.471 0 0 1 1.72-.32c.453 0 .856.075 1.208.224.352.15.648.358.888.624.24.267.421.59.544.968.123.379.184.795.184 1.248v5.184Zm-3.696-.872c.25 0 .48-.024.688-.072.208-.053.403-.125.584-.216.187-.096.363-.21.528-.344.17-.133.336-.285.496-.456v-1.688c-.656.022-1.213.075-1.672.16-.459.08-.832.187-1.12.32-.288.134-.499.291-.632.472a1.03 1.03 0 0 0-.192.608c0 .214.035.398.104.552.07.155.163.283.28.384.117.096.256.168.416.216.16.043.333.064.52.064Zm5.853.872v-8.104h.848c.203 0 .33.099.384.296l.104.832a4.19 4.19 0 0 1 1-.904 2.383 2.383 0 0 1 1.296-.352c.55 0 .992.152 1.328.456.342.304.587.715.736 1.232.112-.293.259-.546.44-.76a2.648 2.648 0 0 1 1.352-.832c.262-.064.526-.096.792-.096.427 0 .806.07 1.136.208.336.134.619.331.848.592.235.262.414.584.536.968.123.379.184.814.184 1.304v5.16h-1.424v-5.16c0-.634-.138-1.114-.416-1.44-.277-.33-.68-.496-1.208-.496-.234 0-.458.043-.672.128-.208.08-.392.2-.552.36-.16.16-.288.363-.384.608-.09.24-.136.52-.136.84v5.16h-1.424v-5.16c0-.65-.13-1.136-.392-1.456-.261-.32-.642-.48-1.144-.48-.352 0-.68.096-.984.288a3.172 3.172 0 0 0-.824.768v6.04h-1.424Zm16.349-8.232c.485 0 .933.083 1.344.248.41.16.765.395 1.064.704.299.304.53.683.696 1.136.17.448.256.96.256 1.536 0 .224-.024.374-.072.448-.048.075-.139.112-.272.112h-5.392c.01.512.08.958.208 1.336.128.379.304.696.528.952.224.251.49.44.8.568a2.8 2.8 0 0 0 1.04.184c.357 0 .664-.04.92-.12a4.608 4.608 0 0 0 1.136-.536c.128-.085.237-.128.328-.128.117 0 .208.046.272.136l.4.52c-.176.214-.387.4-.632.56-.245.155-.51.283-.792.384a4.672 4.672 0 0 1-.864.224c-.299.054-.595.08-.888.08-.56 0-1.077-.093-1.552-.28a3.515 3.515 0 0 1-1.224-.832 3.892 3.892 0 0 1-.8-1.36c-.192-.538-.288-1.157-.288-1.856 0-.565.085-1.093.256-1.584.176-.49.427-.914.752-1.272a3.375 3.375 0 0 1 1.192-.848 3.87 3.87 0 0 1 1.584-.312Zm.032 1.048c-.688 0-1.23.2-1.624.6-.395.395-.64.944-.736 1.648h4.408c0-.33-.045-.632-.136-.904a1.978 1.978 0 0 0-.4-.712 1.722 1.722 0 0 0-.648-.464 2.099 2.099 0 0 0-.864-.168Z" fill="#A0A3BD"/><path d="M66.815 73.57h-1.5a.645.645 0 0 1-.42-.13.8.8 0 0 1-.24-.33l-1.34-3.46h-6.43l-1.34 3.46a.782.782 0 0 1-.24.32.64.64 0 0 1-.42.14h-1.5l5.73-14.33h1.97l5.73 14.33Zm-9.39-5.32h5.35l-2.25-5.83c-.146-.36-.29-.81-.43-1.35-.073.274-.146.527-.22.76a7.915 7.915 0 0 1-.2.6l-2.25 5.82Zm10.914 5.32V63.44h1.06c.253 0 .413.124.48.37l.14 1.1c.44-.486.93-.88 1.47-1.18.547-.3 1.177-.45 1.89-.45.553 0 1.04.094 1.46.28.427.18.78.44 1.06.78.287.334.503.737.65 1.21.147.474.22.997.22 1.57v6.45h-1.78v-6.45c0-.766-.177-1.36-.53-1.78-.347-.426-.88-.64-1.6-.64a3.02 3.02 0 0 0-1.48.38 4.894 4.894 0 0 0-1.26 1.03v7.46h-1.78Zm18.243 0c-.253 0-.413-.123-.48-.37l-.16-1.23c-.433.527-.93.95-1.49 1.27-.553.314-1.19.47-1.91.47-.58 0-1.106-.11-1.58-.33a3.324 3.324 0 0 1-1.21-.99c-.333-.433-.59-.973-.77-1.62-.18-.646-.27-1.39-.27-2.23 0-.746.1-1.44.3-2.08a5.13 5.13 0 0 1 .86-1.68 4.05 4.05 0 0 1 1.38-1.11c.54-.273 1.154-.41 1.84-.41.62 0 1.15.107 1.59.32.44.207.834.5 1.18.88v-5.62h1.78v14.73h-1.06Zm-3.45-1.3c.58 0 1.087-.133 1.52-.4.44-.266.844-.643 1.21-1.13v-4.9c-.326-.44-.686-.746-1.08-.92a3.02 3.02 0 0 0-1.29-.27c-.947 0-1.673.337-2.18 1.01-.507.674-.76 1.634-.76 2.88 0 .66.057 1.227.17 1.7.114.467.28.854.5 1.16.22.3.49.52.81.66.32.14.687.21 1.1.21Zm7.492 1.3V63.44h1.02c.193 0 .327.037.4.11.073.074.123.2.15.38l.12 1.58c.347-.706.773-1.256 1.28-1.65.513-.4 1.113-.6 1.8-.6.28 0 .533.034.76.1.227.06.437.147.63.26l-.23 1.33c-.047.167-.15.25-.31.25a1.63 1.63 0 0 1-.43-.09c-.193-.066-.463-.1-.81-.1-.62 0-1.14.18-1.56.54-.413.36-.76.884-1.04 1.57v6.45h-1.78ZM102.7 63.28c.607 0 1.167.104 1.68.31.514.2.957.494 1.33.88.374.38.664.854.87 1.42.214.56.32 1.2.32 1.92 0 .28-.03.467-.09.56-.06.094-.173.14-.34.14h-6.74c.014.64.1 1.197.26 1.67.16.474.38.87.66 1.19.28.314.614.55 1 .71.387.154.82.23 1.3.23.447 0 .83-.05 1.15-.15.327-.106.607-.22.84-.34.234-.12.427-.23.58-.33.16-.106.297-.16.41-.16.147 0 .26.057.34.17l.5.65c-.22.267-.483.5-.79.7a5.004 5.004 0 0 1-.99.48c-.346.127-.706.22-1.08.28-.373.067-.743.1-1.11.1-.7 0-1.346-.116-1.94-.35a4.397 4.397 0 0 1-1.53-1.04c-.426-.46-.76-1.026-1-1.7-.24-.673-.36-1.446-.36-2.32 0-.706.107-1.366.32-1.98.22-.613.534-1.143.94-1.59a4.222 4.222 0 0 1 1.49-1.06c.587-.26 1.247-.39 1.98-.39Zm.04 1.31c-.86 0-1.536.25-2.03.75-.493.494-.8 1.18-.92 2.06h5.51c0-.413-.056-.79-.17-1.13a2.467 2.467 0 0 0-.5-.89 2.153 2.153 0 0 0-.81-.58 2.621 2.621 0 0 0-1.08-.21Zm9.155 11.97a.903.903 0 0 1-.23.32c-.087.08-.223.12-.41.12h-1.32l1.85-4.02-4.18-9.54h1.54c.153 0 .273.04.36.12.087.074.15.157.19.25l2.71 6.38c.06.147.11.294.15.44.047.147.087.297.12.45.047-.153.093-.303.14-.45.047-.146.1-.296.16-.45l2.63-6.37a.553.553 0 0 1 .2-.26c.1-.073.207-.11.32-.11h1.42l-5.65 13.12Z" fill="#1D1D1D"/></g><defs><filter id="a" x=".103" y="90.07" width="459.793" height="119.793" filterUnits="userSpaceOnUse" color-interpolation-filters="sRGB"><feFlood flood-opacity="0" result="BackgroundImageFix"/><feColorMatrix in="SourceAlpha" values="0 0 0 0 0 0 0 0 0 0 0 0 0 0 0 0 0 0 127 0" result="hardAlpha"/><feOffset dy="7.967"/><feGaussianBlur stdDeviation="12.448"/><feComposite in2="hardAlpha" operator="out"/><feColorMatrix values="0 0 0 0 0.117647 0 0 0 0 0.572549 0 0 0 0 0.439216 0 0 0 0.8 0"/><feBlend in2="BackgroundImageFix" result="effect1_dropShadow_787:16120"/><feBlend in="SourceGraphic" in2="effect1_dropShadow_787:16120" result="shape"/></filter><filter id="b" x=".103" y=".07" width="459.793" height="119.793" filterUnits="userSpaceOnUse" color-interpolation-filters="sRGB"><feFlood flood-opacity="0" result="BackgroundImageFix"/><feColorMatrix in="SourceAlpha" values="0 0 0 0 0 0 0 0 0 0 0 0 0 0 0 0 0 0 127 0" result="hardAlpha"/><feOffset dy="7.967"/><feGaussianBlur stdDeviation="12.448"/><feColorMatrix values="0 0 0 0 0.117647 0 0 0 0 0.572549 0 0 0 0 0.439216 0 0 0 0.8 0"/><feBlend in2="BackgroundImageFix" result="effect1_dropShadow_787:16120"/><feBlend in="SourceGraphic" in2="effect1_dropShadow_787:16120" result="shape"/></filter></defs></svg>