<svg width="516" height="326" fill="none" xmlns="http://www.w3.org/2000/svg"><g filter="url(#a)"><rect x="25" y="17" width="221" height="126" rx="21.913" fill="#fff"/></g><path d="M107.279 69.12c-1.024 0-1.92-.368-2.688-1.104-.736-.768-1.104-1.664-1.104-2.688 0-1.024.368-1.92 1.104-2.688.768-.768 1.664-1.152 2.688-1.152 1.056 0 1.952.384 2.688 1.152.768.768 1.152 1.664 1.152 2.688 0 1.024-.384 1.92-1.152 2.688-.736.736-1.632 1.104-2.688 1.104ZM104.207 96V72h6.192v24h-6.192Zm25.971-19.968c2.272.672 4.112 1.856 5.52 3.552 1.44 1.664 2.16 3.68 2.16 6.048 0 3.456-1.168 6.16-3.504 8.112-2.304 1.952-5.136 2.928-8.496 2.928-2.624 0-4.976-.592-7.056-1.776-2.048-1.216-3.536-2.992-4.464-5.328l5.664-3.264c.832 2.592 2.784 3.888 5.856 3.888 1.696 0 3.008-.4 3.936-1.2.96-.832 1.44-1.952 1.44-3.36 0-1.376-.48-2.48-1.44-3.312-.928-.832-2.24-1.248-3.936-1.248h-1.44l-2.544-3.84 6.624-8.64h-13.152V62.4h21.12v5.472l-6.288 8.16Zm24.333 20.64c-4.192 0-7.488-1.584-9.888-4.752-2.368-3.2-3.552-7.44-3.552-12.72s1.184-9.504 3.552-12.672c2.4-3.2 5.696-4.8 9.888-4.8 4.224 0 7.52 1.6 9.888 4.8 2.368 3.168 3.552 7.392 3.552 12.672s-1.184 9.52-3.552 12.72c-2.368 3.168-5.664 4.752-9.888 4.752Zm-5.088-9.264c1.152 1.856 2.848 2.784 5.088 2.784s3.936-.944 5.088-2.832c1.184-1.888 1.776-4.608 1.776-8.16 0-3.584-.592-6.32-1.776-8.208-1.152-1.888-2.848-2.832-5.088-2.832s-3.936.944-5.088 2.832c-1.152 1.888-1.728 4.624-1.728 8.208 0 3.584.576 6.32 1.728 8.208Z" fill="#1D1D1D"/><g filter="url(#b)"><rect x="25" y="167" width="221" height="126" rx="21.913" fill="#fff"/></g><path d="M95.959 219.12c-1.024 0-1.92-.368-2.688-1.104-.736-.768-1.104-1.664-1.104-2.688 0-1.024.368-1.92 1.104-2.688.768-.768 1.664-1.152 2.688-1.152 1.056 0 1.952.384 2.688 1.152.768.768 1.152 1.664 1.152 2.688 0 1.024-.384 1.92-1.152 2.688-.736.736-1.632 1.104-2.688 1.104ZM92.887 246v-24h6.192v24h-6.192Zm18.387-33.6h5.76V246h-6.624v-26.592l-6.336 1.776-1.632-5.664 8.832-3.12Zm24.323 34.272c-4.192 0-7.488-1.584-9.888-4.752-2.368-3.2-3.552-7.44-3.552-12.72s1.184-9.504 3.552-12.672c2.4-3.2 5.696-4.8 9.888-4.8 4.224 0 7.52 1.6 9.888 4.8 2.368 3.168 3.552 7.392 3.552 12.672s-1.184 9.52-3.552 12.72c-2.368 3.168-5.664 4.752-9.888 4.752Zm-5.088-9.264c1.152 1.856 2.848 2.784 5.088 2.784s3.936-.944 5.088-2.832c1.184-1.888 1.776-4.608 1.776-8.16 0-3.584-.592-6.32-1.776-8.208-1.152-1.888-2.848-2.832-5.088-2.832s-3.936.944-5.088 2.832c-1.152 1.888-1.728 4.624-1.728 8.208 0 3.584.576 6.32 1.728 8.208Zm35.322 9.264c-4.192 0-7.488-1.584-9.888-4.752-2.368-3.2-3.552-7.44-3.552-12.72s1.184-9.504 3.552-12.672c2.4-3.2 5.696-4.8 9.888-4.8 4.224 0 7.52 1.6 9.888 4.8 2.368 3.168 3.552 7.392 3.552 12.672s-1.184 9.52-3.552 12.72c-2.368 3.168-5.664 4.752-9.888 4.752Zm-5.088-9.264c1.152 1.856 2.848 2.784 5.088 2.784s3.936-.944 5.088-2.832c1.184-1.888 1.776-4.608 1.776-8.16 0-3.584-.592-6.32-1.776-8.208-1.152-1.888-2.848-2.832-5.088-2.832s-3.936.944-5.088 2.832c-1.152 1.888-1.728 4.624-1.728 8.208 0 3.584.576 6.32 1.728 8.208Z" fill="#1D1D1D"/><g filter="url(#c)"><rect x="270" y="17" width="221" height="126" rx="21.913" fill="#fff"/></g><path d="M352.349 69.12c-1.024 0-1.92-.368-2.688-1.104-.736-.768-1.104-1.664-1.104-2.688 0-1.024.368-1.92 1.104-2.688.768-.768 1.664-1.152 2.688-1.152 1.056 0 1.952.384 2.688 1.152.768.768 1.152 1.664 1.152 2.688 0 1.024-.384 1.92-1.152 2.688-.736.736-1.632 1.104-2.688 1.104ZM349.277 96V72h6.192v24h-6.192Zm22.468-21.36c3.232 0 5.952.976 8.16 2.928 2.208 1.92 3.312 4.608 3.312 8.064 0 3.456-1.168 6.16-3.504 8.112-2.304 1.952-5.136 2.928-8.496 2.928-2.72 0-5.12-.608-7.2-1.824-2.08-1.216-3.584-3.008-4.512-5.376l5.664-3.312c.832 2.688 2.848 4.032 6.048 4.032 1.696 0 3.008-.4 3.936-1.2.96-.832 1.44-1.952 1.44-3.36 0-1.376-.464-2.48-1.392-3.312-.928-.832-2.192-1.248-3.792-1.248h-10.176l1.344-18.672h19.056v6.192h-12.912l-.432 6.048h3.456Zm27.695 22.032c-4.192 0-7.488-1.584-9.888-4.752-2.368-3.2-3.552-7.44-3.552-12.72s1.184-9.504 3.552-12.672c2.4-3.2 5.696-4.8 9.888-4.8 4.224 0 7.52 1.6 9.888 4.8 2.368 3.168 3.552 7.392 3.552 12.672s-1.184 9.52-3.552 12.72c-2.368 3.168-5.664 4.752-9.888 4.752Zm-5.088-9.264c1.152 1.856 2.848 2.784 5.088 2.784s3.936-.944 5.088-2.832c1.184-1.888 1.776-4.608 1.776-8.16 0-3.584-.592-6.32-1.776-8.208-1.152-1.888-2.848-2.832-5.088-2.832s-3.936.944-5.088 2.832c-1.152 1.888-1.728 4.624-1.728 8.208 0 3.584.576 6.32 1.728 8.208Z" fill="#1D1D1D"/><g filter="url(#d)"><rect x="270" y="167" width="221" height="126" rx="21.913" fill="#fff"/></g><path d="M295.256 219.12c-1.024 0-1.92-.368-2.688-1.104-.736-.768-1.104-1.664-1.104-2.688 0-1.024.368-1.92 1.104-2.688.768-.768 1.664-1.152 2.688-1.152 1.056 0 1.952.384 2.688 1.152.768.768 1.152 1.664 1.152 2.688 0 1.024-.384 1.92-1.152 2.688-.736.736-1.632 1.104-2.688 1.104ZM292.184 246v-24h6.192v24h-6.192Zm28.083.672c-5.056 0-9.232-1.68-12.528-5.04-3.296-3.36-4.944-7.504-4.944-12.432 0-4.96 1.648-9.104 4.944-12.432 3.296-3.36 7.472-5.04 12.528-5.04 3.04 0 5.84.72 8.4 2.16 2.592 1.408 4.608 3.328 6.048 5.76l-5.712 3.312c-.832-1.504-2.016-2.672-3.552-3.504-1.536-.864-3.264-1.296-5.184-1.296-3.264 0-5.904 1.024-7.92 3.072-1.984 2.048-2.976 4.704-2.976 7.968 0 3.232.992 5.872 2.976 7.92 2.016 2.048 4.656 3.072 7.92 3.072 1.92 0 3.648-.416 5.184-1.248 1.568-.864 2.752-2.032 3.552-3.504l5.712 3.312c-1.44 2.432-3.44 4.368-6 5.808-2.56 1.408-5.376 2.112-8.448 2.112ZM354.711 222h6.192v24h-6.192v-2.688c-1.504 2.24-3.888 3.36-7.152 3.36-2.624 0-4.8-.88-6.528-2.64-1.696-1.76-2.544-4.192-2.544-7.296V222h6.192v13.968c0 1.6.432 2.832 1.296 3.696.864.832 2.016 1.248 3.456 1.248 1.6 0 2.88-.496 3.84-1.488s1.44-2.48 1.44-4.464V222Zm17.388 6.816c0 .64.416 1.168 1.248 1.584.864.384 1.904.736 3.12 1.056 1.216.288 2.432.672 3.648 1.152 1.216.448 2.24 1.216 3.072 2.304.864 1.088 1.296 2.448 1.296 4.08 0 2.464-.928 4.368-2.784 5.712-1.824 1.312-4.112 1.968-6.864 1.968-4.928 0-8.288-1.904-10.08-5.712l5.376-3.024c.704 2.08 2.272 3.12 4.704 3.12 2.208 0 3.312-.688 3.312-2.064 0-.64-.432-1.152-1.296-1.536-.832-.416-1.856-.784-3.072-1.104a32.37 32.37 0 0 1-3.648-1.2 7.757 7.757 0 0 1-3.12-2.256c-.832-1.056-1.248-2.368-1.248-3.936 0-2.368.864-4.224 2.592-5.568 1.76-1.376 3.936-2.064 6.528-2.064 1.952 0 3.728.448 5.328 1.344 1.6.864 2.864 2.112 3.792 3.744l-5.28 2.88c-.768-1.632-2.048-2.448-3.84-2.448-.8 0-1.472.176-2.016.528-.512.352-.768.832-.768 1.44Zm29.391-.864h-5.424v9.984c0 .832.208 1.44.624 1.824.416.384 1.024.608 1.824.672.8.032 1.792.016 2.976-.048V246c-4.256.48-7.264.08-9.024-1.2-1.728-1.28-2.592-3.568-2.592-6.864v-9.984h-4.176V222h4.176v-4.848l6.192-1.872V222h5.424v5.952Zm24.063 15.072c-2.464 2.432-5.472 3.648-9.024 3.648-3.552 0-6.56-1.216-9.024-3.648-2.432-2.464-3.648-5.472-3.648-9.024 0-3.552 1.216-6.544 3.648-8.976 2.464-2.464 5.472-3.696 9.024-3.696 3.552 0 6.56 1.232 9.024 3.696 2.464 2.432 3.696 5.424 3.696 8.976 0 3.552-1.232 6.56-3.696 9.024Zm-13.68-4.272c1.248 1.248 2.8 1.872 4.656 1.872 1.856 0 3.408-.624 4.656-1.872 1.248-1.248 1.872-2.832 1.872-4.752s-.624-3.504-1.872-4.752c-1.248-1.248-2.8-1.872-4.656-1.872-1.856 0-3.408.624-4.656 1.872-1.216 1.248-1.824 2.832-1.824 4.752s.608 3.504 1.824 4.752Zm48.276-17.424c2.752 0 4.944.896 6.576 2.688 1.664 1.792 2.496 4.192 2.496 7.2V246h-6.192v-14.352c0-1.44-.352-2.56-1.056-3.36-.704-.8-1.696-1.2-2.976-1.2-1.408 0-2.512.464-3.312 1.392-.768.928-1.152 2.272-1.152 4.032V246h-6.192v-14.352c0-1.44-.352-2.56-1.056-3.36-.704-.8-1.696-1.2-2.976-1.2-1.376 0-2.48.464-3.312 1.392-.8.928-1.2 2.272-1.2 4.032V246h-6.192v-24h6.192v2.544c1.44-2.144 3.664-3.216 6.672-3.216 2.944 0 5.12 1.152 6.528 3.456 1.6-2.304 3.984-3.456 7.152-3.456Z" fill="#1D1D1D"/><defs><filter id="a" x="0" y="0" width="271" height="176" filterUnits="userSpaceOnUse" color-interpolation-filters="sRGB"><feFlood flood-opacity="0" result="BackgroundImageFix"/><feColorMatrix in="SourceAlpha" values="0 0 0 0 0 0 0 0 0 0 0 0 0 0 0 0 0 0 127 0" result="hardAlpha"/><feOffset dy="8"/><feGaussianBlur stdDeviation="12.5"/><feComposite in2="hardAlpha" operator="out"/><feColorMatrix values="0 0 0 0 0.117647 0 0 0 0 0.572549 0 0 0 0 0.439216 0 0 0 0.8 0"/><feBlend in2="BackgroundImageFix" result="effect1_dropShadow_1375:13304"/><feBlend in="SourceGraphic" in2="effect1_dropShadow_1375:13304" result="shape"/></filter><filter id="b" x="0" y="150" width="271" height="176" filterUnits="userSpaceOnUse" color-interpolation-filters="sRGB"><feFlood flood-opacity="0" result="BackgroundImageFix"/><feColorMatrix in="SourceAlpha" values="0 0 0 0 0 0 0 0 0 0 0 0 0 0 0 0 0 0 127 0" result="hardAlpha"/><feOffset dy="8"/><feGaussianBlur stdDeviation="12.5"/><feComposite in2="hardAlpha" operator="out"/><feColorMatrix values="0 0 0 0 0.117647 0 0 0 0 0.572549 0 0 0 0 0.439216 0 0 0 0.8 0"/><feBlend in2="BackgroundImageFix" result="effect1_dropShadow_1375:13304"/><feBlend in="SourceGraphic" in2="effect1_dropShadow_1375:13304" result="shape"/></filter><filter id="c" x="245" y="0" width="271" height="176" filterUnits="userSpaceOnUse" color-interpolation-filters="sRGB"><feFlood flood-opacity="0" result="BackgroundImageFix"/><feColorMatrix in="SourceAlpha" values="0 0 0 0 0 0 0 0 0 0 0 0 0 0 0 0 0 0 127 0" result="hardAlpha"/><feOffset dy="8"/><feGaussianBlur stdDeviation="12.5"/><feComposite in2="hardAlpha" operator="out"/><feColorMatrix values="0 0 0 0 0.117647 0 0 0 0 0.572549 0 0 0 0 0.439216 0 0 0 0.8 0"/><feBlend in2="BackgroundImageFix" result="effect1_dropShadow_1375:13304"/><feBlend in="SourceGraphic" in2="effect1_dropShadow_1375:13304" result="shape"/></filter><filter id="d" x="245" y="150" width="271" height="176" filterUnits="userSpaceOnUse" color-interpolation-filters="sRGB"><feFlood flood-opacity="0" result="BackgroundImageFix"/><feColorMatrix in="SourceAlpha" values="0 0 0 0 0 0 0 0 0 0 0 0 0 0 0 0 0 0 127 0" result="hardAlpha"/><feOffset dy="8"/><feGaussianBlur stdDeviation="12.5"/><feComposite in2="hardAlpha" operator="out"/><feColorMatrix values="0 0 0 0 0.117647 0 0 0 0 0.572549 0 0 0 0 0.439216 0 0 0 0.8 0"/><feBlend in2="BackgroundImageFix" result="effect1_dropShadow_1375:13304"/><feBlend in="SourceGraphic" in2="effect1_dropShadow_1375:13304" result="shape"/></filter></defs></svg>