<svg width="173" height="54" viewBox="0 0 173 54" fill="none" xmlns="http://www.w3.org/2000/svg">
<rect y="0.414062" width="172.937" height="52.9718" rx="11.6849" fill="white"/>
<path d="M35.2206 26.5913C35.1761 22.7648 38.5551 20.9002 38.7182 20.8167C36.8063 18.2008 33.8423 17.839 32.8048 17.8112C30.315 17.5607 27.8993 19.2026 26.6396 19.2026C25.3502 19.2026 23.3939 17.8251 21.2894 17.8668C18.5773 17.9086 16.043 19.3835 14.6647 21.6655C11.8044 26.3269 13.9385 33.1729 16.6803 36.9438C18.0586 38.7944 19.6592 40.8538 21.7637 40.7703C23.8237 40.6868 24.5944 39.5458 27.0694 39.5458C29.5295 39.5458 30.2409 40.7703 32.3899 40.7285C34.5981 40.7007 35.9912 38.8779 37.3102 37.0133C38.896 34.8983 39.5333 32.8111 39.5629 32.7137C39.4888 32.6998 35.265 31.1831 35.2206 26.5913Z" fill="black"/>
<path d="M31.174 15.3348C32.2855 14.0407 33.0414 12.2735 32.819 10.4785C31.2184 10.5481 29.2177 11.5221 28.0617 12.7884C27.0391 13.9015 26.135 15.7383 26.3722 17.4637C28.1654 17.5889 30.018 16.6149 31.174 15.3348Z" fill="black"/>
<path d="M61.2007 36.1105H54.1907L52.5012 40.7858H49.5371L56.1766 23.5039H59.2592L65.8987 40.7858H62.8753L61.2007 36.1105ZM54.9169 33.9538H60.4745L57.7327 26.3703H57.6586L54.9169 33.9538Z" fill="black"/>
<path d="M80.2607 34.4813C80.2607 38.3913 78.0229 40.9099 74.6587 40.9099C72.7469 40.9099 71.2352 40.1028 70.435 38.7113H70.3757V44.9451H67.6191V28.178H70.2868V30.2791H70.3312C71.1019 28.9294 72.7321 28.0527 74.5994 28.0527C78.0229 28.0527 80.2607 30.5713 80.2607 34.4813ZM77.4301 34.4813C77.4301 31.9349 76.0221 30.2512 73.888 30.2512C71.7836 30.2512 70.3609 31.9627 70.3609 34.4813C70.3609 37.0138 71.7836 38.7253 73.888 38.7253C76.0221 38.7253 77.4301 37.0555 77.4301 34.4813Z" fill="black"/>
<path d="M95.0195 34.4813C95.0195 38.3913 92.7816 40.9099 89.4174 40.9099C87.5056 40.9099 85.9939 40.1028 85.1936 38.7113H85.1343V44.9451H82.3926V28.178H85.0602V30.2791H85.1047C85.8754 28.9294 87.5056 28.0527 89.373 28.0527C92.7816 28.0527 95.0195 30.5713 95.0195 34.4813ZM92.1888 34.4813C92.1888 31.9349 90.7809 30.2512 88.6468 30.2512C86.5423 30.2512 85.1195 31.9627 85.1195 34.4813C85.1195 37.0138 86.5423 38.7253 88.6468 38.7253C90.7957 38.7253 92.1888 37.0555 92.1888 34.4813Z" fill="black"/>
<path d="M104.787 35.9707C104.994 37.6822 106.758 38.8092 109.188 38.8092C111.515 38.8092 113.175 37.6822 113.175 36.1376C113.175 34.8018 112.167 33.9948 109.781 33.4382L107.395 32.8955C104.016 32.1302 102.445 30.6414 102.445 28.2341C102.445 25.2564 105.216 23.2109 109.144 23.2109C113.027 23.2109 115.694 25.2564 115.783 28.2341H112.997C112.834 26.5087 111.308 25.4651 109.099 25.4651C106.891 25.4651 105.365 26.5226 105.365 28.0532C105.365 29.2777 106.328 29.9874 108.699 30.544L110.73 31.017C114.509 31.8519 116.08 33.2851 116.08 35.8037C116.08 39.0319 113.338 41.0634 108.981 41.0634C104.905 41.0634 102.149 39.0875 101.971 35.9567H104.787V35.9707Z" fill="black"/>
<path d="M122.038 25.2012V28.1789H124.587V30.2244H122.038V37.1677C122.038 38.2531 122.542 38.754 123.668 38.754C123.95 38.754 124.395 38.7123 124.572 38.6984V40.7299C124.261 40.7995 123.654 40.8551 123.046 40.8551C120.334 40.8551 119.267 39.895 119.267 37.46V30.2383H117.311V28.1928H119.267V25.2012H122.038Z" fill="black"/>
<path d="M126.055 34.4818C126.055 30.5161 128.545 28.0254 132.413 28.0254C136.296 28.0254 138.771 30.5161 138.771 34.4818C138.771 38.4613 136.31 40.9381 132.413 40.9381C128.53 40.9381 126.055 38.4613 126.055 34.4818ZM135.984 34.4818C135.984 31.7684 134.651 30.1543 132.427 30.1543C130.204 30.1543 128.871 31.7684 128.871 34.4818C128.871 37.209 130.19 38.8092 132.427 38.8092C134.665 38.8092 135.984 37.209 135.984 34.4818Z" fill="black"/>
<path d="M141.068 28.1782H143.692V30.3211H143.751C144.166 28.9018 145.396 28.0391 146.982 28.0391C147.382 28.0391 147.708 28.0947 147.93 28.1365V30.5576C147.708 30.4741 147.234 30.4045 146.7 30.4045C144.922 30.4045 143.825 31.5316 143.825 33.2988V40.7709H141.068V28.1782Z" fill="black"/>
<path d="M160.616 37.0838C160.245 39.3658 157.874 40.9381 154.836 40.9381C150.938 40.9381 148.508 38.4892 148.508 34.5374C148.508 30.5857 150.938 28.0254 154.717 28.0254C158.423 28.0254 160.764 30.4187 160.764 34.2452V35.1357H151.294V35.2888C151.294 37.4456 152.732 38.8509 154.91 38.8509C156.437 38.8509 157.637 38.1691 158.008 37.0838H160.616ZM151.309 33.3129H158.022C157.963 31.3788 156.644 30.1126 154.732 30.1126C152.835 30.1265 151.457 31.4205 151.309 33.3129Z" fill="black"/>
<path d="M54.5762 10.4922C57.1995 10.4922 58.7408 12.0089 58.7408 14.6109C58.7408 17.2686 57.2143 18.7853 54.5762 18.7853H51.375V10.4922H54.5762ZM52.7533 17.6165H54.4132C56.2658 17.6165 57.3329 16.5312 57.3329 14.6248C57.3329 12.7464 56.251 11.661 54.4132 11.661H52.7533V17.6165Z" fill="black"/>
<path d="M60.2832 15.6564C60.2832 13.6388 61.4837 12.4004 63.4251 12.4004C65.3666 12.4004 66.567 13.6249 66.567 15.6564C66.567 17.688 65.3666 18.9125 63.4251 18.9125C61.4837 18.9125 60.2832 17.688 60.2832 15.6564ZM65.2184 15.6564C65.2184 14.2928 64.5663 13.4997 63.4251 13.4997C62.284 13.4997 61.6319 14.2928 61.6319 15.6564C61.6319 17.0201 62.2691 17.8132 63.4251 17.8132C64.5811 17.8132 65.2184 17.0201 65.2184 15.6564Z" fill="black"/>
<path d="M74.9394 18.8006H73.5759L72.1976 14.181H72.0939L70.7156 18.8006H69.367L67.5293 12.5391H68.8631L70.0635 17.3257H70.1673L71.5456 12.5391H72.8053L74.1836 17.3257H74.2873L75.4729 12.5391H76.7919L74.9394 18.8006Z" fill="black"/>
<path d="M78.3184 12.5254H79.5929V13.5272H79.6967C80.0227 12.8315 80.6896 12.4141 81.6826 12.4141C83.1647 12.4141 83.9946 13.2489 83.9946 14.7378V18.8009H82.6756V15.0579C82.6756 14.056 82.2162 13.5551 81.238 13.5551C80.2598 13.5551 79.6374 14.1673 79.6374 15.1413V18.8009H78.3184V12.5254Z" fill="black"/>
<path d="M86.084 10.0898H87.4031V18.8004H86.084V10.0898Z" fill="black"/>
<path d="M89.2422 15.6564C89.2422 13.6388 90.4426 12.4004 92.384 12.4004C94.3254 12.4004 95.5258 13.6249 95.5258 15.6564C95.5258 17.688 94.3254 18.9125 92.384 18.9125C90.4278 18.9125 89.2422 17.688 89.2422 15.6564ZM94.1772 15.6564C94.1772 14.2928 93.5252 13.4997 92.384 13.4997C91.2429 13.4997 90.5908 14.2928 90.5908 15.6564C90.5908 17.0201 91.2281 17.8132 92.384 17.8132C93.5252 17.8132 94.1772 17.0201 94.1772 15.6564Z" fill="black"/>
<path d="M96.918 17.0198C96.918 15.8928 97.8072 15.2388 99.3929 15.1553L101.201 15.0579V14.5152C101.201 13.8473 100.742 13.4855 99.8375 13.4855C99.0965 13.4855 98.5926 13.736 98.4444 14.1812H97.1699C97.3033 13.1098 98.3852 12.4141 99.8968 12.4141C101.572 12.4141 102.52 13.1933 102.52 14.5152V18.8009H101.245V17.9243H101.142C100.742 18.5505 100.015 18.9123 99.141 18.9123C97.8516 18.8983 96.918 18.1748 96.918 17.0198ZM101.216 16.4911V15.9623L99.5856 16.0597C98.6667 16.1154 98.2518 16.4076 98.2518 16.9642C98.2518 17.5347 98.7705 17.8547 99.4819 17.8547C100.475 17.8547 101.216 17.2703 101.216 16.4911Z" fill="black"/>
<path d="M104.254 15.6557C104.254 13.6798 105.336 12.4275 107.025 12.4275C107.944 12.4275 108.715 12.831 109.07 13.5268H109.174V10.0898H110.493V18.8004H109.219V17.8125H109.115C108.715 18.4943 107.944 18.9118 107.025 18.9118C105.321 18.8978 104.254 17.6455 104.254 15.6557ZM105.617 15.6557C105.617 16.9915 106.284 17.7847 107.396 17.7847C108.507 17.7847 109.189 16.9776 109.189 15.6557C109.189 14.3477 108.493 13.5268 107.396 13.5268C106.284 13.5407 105.617 14.3477 105.617 15.6557Z" fill="black"/>
<path d="M115.932 15.6564C115.932 13.6388 117.132 12.4004 119.074 12.4004C121.015 12.4004 122.215 13.6249 122.215 15.6564C122.215 17.688 121.015 18.9125 119.074 18.9125C117.132 18.9125 115.932 17.688 115.932 15.6564ZM120.867 15.6564C120.867 14.2928 120.215 13.4997 119.074 13.4997C117.932 13.4997 117.28 14.2928 117.28 15.6564C117.28 17.0201 117.918 17.8132 119.074 17.8132C120.215 17.8132 120.867 17.0201 120.867 15.6564Z" fill="black"/>
<path d="M123.994 12.5254H125.269V13.5272H125.372C125.698 12.8315 126.365 12.4141 127.358 12.4141C128.84 12.4141 129.67 13.2489 129.67 14.7378V18.8009H128.351V15.0579C128.351 14.056 127.892 13.5551 126.914 13.5551C125.936 13.5551 125.313 14.1673 125.313 15.1413V18.8009H123.994V12.5254Z" fill="black"/>
<path d="M137.11 10.9668V12.5531H138.563V13.5966H137.11V16.8248C137.11 17.4788 137.392 17.771 138.059 17.771C138.266 17.771 138.37 17.7571 138.563 17.7432V18.7729C138.355 18.8007 138.103 18.8424 137.851 18.8424C136.384 18.8424 135.806 18.3554 135.806 17.1449V13.6106H134.754V12.567H135.806V10.9668H137.11Z" fill="black"/>
<path d="M140.342 10.0898H141.646V13.5407H141.75C142.076 12.8449 142.772 12.4136 143.78 12.4136C145.203 12.4136 146.077 13.2624 146.077 14.7512V18.8004H144.758V15.0574C144.758 14.0555 144.269 13.5546 143.336 13.5546C142.254 13.5546 141.661 14.1947 141.661 15.1409V18.8004H140.342V10.0898Z" fill="black"/>
<path d="M153.769 17.1033C153.473 18.2304 152.406 18.9123 150.879 18.9123C148.968 18.9123 147.797 17.6878 147.797 15.684C147.797 13.6803 148.997 12.4141 150.879 12.4141C152.732 12.4141 153.858 13.6107 153.858 15.5727V16.0041H149.145V16.0736C149.19 17.1729 149.872 17.8686 150.924 17.8686C151.724 17.8686 152.272 17.6043 152.51 17.1033H153.769ZM149.145 15.0857H152.51C152.48 14.0977 151.843 13.4577 150.865 13.4577C149.886 13.4577 149.22 14.1117 149.145 15.0857Z" fill="black"/>
</svg>
