<svg width="276" height="86" viewBox="0 0 276 86" fill="none" xmlns="http://www.w3.org/2000/svg">
<path d="M101.256 27.0505C101.256 26.3127 102.432 25.1367 103.17 25.1367H125.924C127.688 25.1367 131.37 28.7184 131.37 30.4823V40.8776C131.37 42.6415 127.692 46.1732 125.924 46.1732H107.139V55.1005C107.139 55.7384 106.551 56.3264 105.914 56.3264H102.532C101.894 56.3264 101.256 55.7384 101.256 55.1005V27.0505ZM125.482 40.9737V30.3324H107.139V40.9737H125.482Z" fill="white"/>
<path d="M136.615 46.2226C136.615 44.4587 139.851 41.465 141.519 41.465H155.596V36.5614H139.217C138.579 36.5614 137.991 35.9734 137.991 35.3354V32.7337C137.991 32.0958 138.579 31.5078 139.217 31.5078H156.138C157.805 31.5078 161.337 34.8896 161.337 36.5575V51.2761C161.337 52.944 157.805 56.3258 156.138 56.3258H141.819C140.151 56.3258 136.619 52.944 136.619 51.2761V46.2226H136.615ZM155.596 51.2761V45.7346H142.307V51.2761H155.596Z" fill="white"/>
<path d="M167.267 56.326C166.629 56.326 166.287 55.788 166.287 55.2461C166.287 55.0001 166.433 54.6581 166.533 54.5121L173.742 44.7547C173.988 44.3628 174.38 44.0207 174.868 43.8247C174.376 43.6787 173.984 43.2867 173.742 42.9408L166.483 33.3295C166.287 33.1335 166.141 32.8376 166.141 32.5456C166.141 32.0537 166.483 31.5156 167.121 31.5156H171.828L178.988 41.3229H180.606L187.815 31.5156H192.473C193.111 31.5156 193.453 32.0537 193.453 32.5456C193.453 32.8376 193.307 33.1335 193.157 33.3295L185.901 42.9408C185.605 43.2829 185.213 43.6748 184.725 43.8247C185.217 44.0207 185.609 44.3628 185.901 44.7547L193.061 54.5121C193.157 54.6581 193.353 55.004 193.353 55.2461C193.353 55.7841 192.961 56.326 192.373 56.326H187.665L180.602 46.3688H178.984L171.92 56.326H167.267Z" fill="white"/>
<path d="M197.773 46.2226C197.773 44.4587 201.009 41.465 202.677 41.465H216.754V36.5614H200.375C199.737 36.5614 199.149 35.9734 199.149 35.3354V32.7337C199.149 32.0958 199.737 31.5078 200.375 31.5078H217.296C218.964 31.5078 222.495 34.8896 222.495 36.5575V51.2761C222.495 52.944 218.964 56.3258 217.296 56.3258H202.977C201.309 56.3258 197.777 52.944 197.777 51.2761V46.2226H197.773ZM216.754 51.2761V45.7346H203.465V51.2761H216.754Z" fill="white"/>
<path d="M234.95 55.0961C234.95 55.734 234.362 56.322 233.725 56.322H230.439C229.851 56.322 229.213 55.734 229.213 55.0961V36.5575C229.213 34.9396 232.745 31.5078 234.412 31.5078H245.446C246.084 31.5078 246.672 32.0958 246.672 32.7337V35.3354C246.672 35.9734 246.084 36.5614 245.446 36.5614H234.95V55.0961Z" fill="white"/>
<path d="M250.986 36.5614C250.986 34.8936 254.518 31.5117 256.186 31.5117H270.801C272.519 31.5117 276 34.8936 276 36.5614V51.5183C276 53.1862 272.469 56.3259 270.801 56.3259H256.186C254.518 56.3259 250.986 53.1362 250.986 51.4722V36.5614ZM270.259 51.2762V36.5614H256.724V51.2762H270.259Z" fill="white"/>
<path d="M35.7398 85.65C16.033 85.65 0 69.617 0 49.9102H14.807C14.807 61.4507 24.1955 70.8429 35.7398 70.8429V85.65Z" fill="white"/>
<path d="M35.7398 71.4796V56.6726C47.2803 56.6726 56.6726 47.2841 56.6726 35.7398C56.6726 24.1993 47.2841 14.807 35.7398 14.807C24.1955 14.807 14.807 24.1955 14.807 35.7398H0C0 16.033 16.033 0 35.7398 0C55.4466 0 71.4796 16.033 71.4796 35.7398C71.4834 55.4466 55.4505 71.4796 35.7398 71.4796Z" fill="white"/>
<path d="M102.096 76.5773C102.096 75.8548 103.621 74.3906 104.344 74.3906H110.519C111.242 74.3906 112.768 75.8548 112.768 76.5773V79.6978C112.768 80.036 112.087 80.7392 111.726 80.7392H104.574V82.9451H111.872C112.149 82.9451 112.403 83.1988 112.403 83.4755V84.6014C112.403 84.8781 112.149 85.1318 111.872 85.1318H104.34C103.617 85.1318 102.092 83.6676 102.092 82.9451V76.5773H102.096ZM110.308 78.9138V76.5811H104.578V78.9138H110.308Z" fill="white"/>
<path d="M115.459 76.5767C115.459 75.8542 116.985 74.39 117.707 74.39H122.841C123.137 74.39 123.564 74.7282 123.752 75.0049V70.8467C123.752 70.57 124.006 70.3164 124.282 70.3164H125.704C125.958 70.3164 126.235 70.57 126.235 70.8467V84.2357C126.235 84.5316 125.643 85.1273 125.343 85.1273H117.703C116.981 85.1273 115.455 83.6631 115.455 82.9406V76.5767H115.459ZM123.756 82.9406V76.5767H117.941V82.9406H123.756Z" fill="white"/>
<path d="M129.373 74.921C129.373 74.6443 129.627 74.3906 129.903 74.3906H131.325C131.602 74.3906 131.856 74.6443 131.856 74.921V82.9413H137.586V74.921C137.586 74.6443 137.862 74.3906 138.116 74.3906H139.538C139.814 74.3906 140.068 74.6443 140.068 74.921V82.9413C140.068 83.6638 138.539 85.1279 137.82 85.1279H131.625C130.903 85.1279 129.377 83.6638 129.377 82.9413V74.921H129.373Z" fill="white"/>
<path d="M143.072 76.5773C143.072 75.8548 144.602 74.3906 145.32 74.3906H152.046C152.299 74.3906 152.576 74.6443 152.576 74.921V76.0431C152.576 76.3198 152.299 76.5734 152.046 76.5734H145.555V82.9374H152.046C152.299 82.9374 152.576 83.2141 152.576 83.4678V84.5938C152.576 84.8705 152.322 85.1241 152.046 85.1241H145.32C144.598 85.1241 143.072 83.6599 143.072 82.9374V76.5773Z" fill="white"/>
<path d="M154.676 80.7585C154.676 79.9938 156.075 78.6987 156.797 78.6987H162.884V76.5773H155.798C155.521 76.5773 155.268 76.3237 155.268 76.047V74.9249C155.268 74.6482 155.521 74.3945 155.798 74.3945H163.119C163.841 74.3945 165.367 75.8587 165.367 76.5812V82.9452C165.367 83.6677 163.837 85.1318 163.119 85.1318H156.924C156.201 85.1318 154.676 83.6677 154.676 82.9452V80.7585ZM162.888 82.9413V80.5433H157.139V82.9413H162.888Z" fill="white"/>
<path d="M168.357 72.1631C168.357 71.8865 168.611 71.6328 168.888 71.6328H170.31C170.586 71.6328 170.84 71.8865 170.84 72.1631V74.3921H175.613C175.89 74.3921 176.143 74.6457 176.143 74.9224V76.0446C176.143 76.3213 175.89 76.5749 175.613 76.5749H170.84V82.9389H175.613C175.89 82.9389 176.143 83.1925 176.143 83.4692V84.5952C176.143 84.8719 175.89 85.1256 175.613 85.1256H170.606C169.883 85.1256 168.357 83.6614 168.357 82.9389V72.1631Z" fill="white"/>
<path d="M178.494 71.0147C178.494 70.738 178.748 70.4844 179.024 70.4844H180.446C180.723 70.4844 180.977 70.738 180.977 71.0147V72.2445C180.977 72.4981 180.723 72.7748 180.446 72.7748H179.024C178.771 72.7748 178.494 72.5212 178.494 72.2445V71.0147ZM178.494 74.9192C178.494 74.6425 178.748 74.3889 179.024 74.3889H180.446C180.723 74.3889 180.977 74.6425 180.977 74.9192V84.5958C180.977 84.8495 180.723 85.1262 180.466 85.1262H179.021C178.744 85.1262 178.49 84.8495 178.49 84.5958V74.9192H178.494Z" fill="white"/>
<path d="M183.99 76.5773C183.99 75.8548 185.516 74.3906 186.238 74.3906H192.56C193.302 74.3906 194.808 75.8548 194.808 76.5773V83.0489C194.808 83.7713 193.279 85.1279 192.56 85.1279H186.238C185.516 85.1279 183.99 83.7483 183.99 83.0258V76.5773ZM192.33 82.9413V76.5773H186.473V82.9413H192.33Z" fill="white"/>
<path d="M197.775 76.5773C197.775 75.8548 199.305 74.3906 200.023 74.3906H206.218C206.941 74.3906 208.467 75.8548 208.467 76.5773V84.5976C208.467 84.8743 208.213 85.1279 207.936 85.1279H206.514C206.261 85.1279 205.984 84.8743 205.984 84.5976V76.5773H200.254V84.5976C200.254 84.8743 200 85.1279 199.724 85.1279H198.302C198.025 85.1279 197.771 84.8743 197.771 84.5976V76.5773H197.775Z" fill="white"/>
</svg>
