<svg width="150" height="42" fill="none" xmlns="http://www.w3.org/2000/svg"><rect x=".5" y=".5" width="149" height="41" rx="9.5" stroke="#fff"/><path d="M75.808 22.304c-2.637 0-4.791 1.88-4.791 4.463 0 2.572 2.154 4.462 4.791 4.462 2.637 0 4.791-1.89 4.791-4.462 0-2.583-2.154-4.463-4.791-4.463Zm0 7.172c-1.448 0-2.693-1.113-2.693-2.71 0-1.606 1.246-2.708 2.693-2.708s2.693 1.102 2.693 2.709c0 1.596-1.257 2.709-2.693 2.709ZM65.35 22.304c-2.637 0-4.791 1.88-4.791 4.463 0 2.572 2.154 4.462 4.791 4.462 2.637 0 4.791-1.89 4.791-4.462 0-2.583-2.154-4.463-4.79-4.463Zm0 7.172c-1.447 0-2.693-1.113-2.693-2.71 0-1.606 1.246-2.708 2.693-2.708 1.448 0 2.693 1.102 2.693 2.709 0 1.596-1.245 2.709-2.693 2.709ZM52.917 23.68v1.89h4.848c-.146 1.06-.528 1.848-1.1 2.383-.707.662-1.806 1.386-3.736 1.386-2.985 0-5.32-2.247-5.32-5.04s2.335-5.04 5.32-5.04c1.604 0 2.782.588 3.646 1.355L58 19.28c-1.211-1.081-2.816-1.91-5.083-1.91-4.084 0-7.518 3.107-7.518 6.94 0 3.822 3.434 6.94 7.518 6.94 2.21 0 3.872-.672 5.173-1.942 1.335-1.25 1.75-3.014 1.75-4.431 0-.441-.033-.85-.112-1.187h-6.81v-.01Zm50.842 1.47c-.392-.998-1.604-2.846-4.084-2.846-2.457 0-4.5 1.806-4.5 4.463 0 2.499 2.02 4.462 4.736 4.462 2.188 0 3.456-1.25 3.972-1.974l-1.627-1.018c-.539.745-1.28 1.239-2.346 1.239s-1.828-.462-2.311-1.355l6.385-2.467-.225-.504Zm-6.508 1.49c-.056-1.721 1.425-2.603 2.491-2.603.831 0 1.537.388 1.773.945l-4.264 1.659Zm-5.184 4.327h2.098V17.842h-2.098v13.125Zm-3.433-7.665h-.079c-.471-.525-1.369-.998-2.514-.998-2.39 0-4.578 1.964-4.578 4.484 0 2.499 2.188 4.452 4.579 4.452 1.133 0 2.042-.473 2.513-1.019h.067v.64c0 1.712-.976 2.626-2.547 2.626-1.279 0-2.076-.861-2.401-1.586l-1.83.714c.528 1.187 1.92 2.636 4.231 2.636 2.457 0 4.533-1.355 4.533-4.652v-8.022h-1.986v.725h.011Zm-2.413 6.174c-1.448 0-2.66-1.134-2.66-2.688 0-1.575 1.212-2.72 2.66-2.72 1.425 0 2.547 1.155 2.547 2.72.011 1.554-1.11 2.688-2.547 2.688Zm27.368-11.634h-5.016v13.125h2.098V25.99h2.929c2.323 0 4.601-1.575 4.601-4.074 0-2.5-2.301-4.074-4.612-4.074Zm.045 6.32h-2.974v-4.504h2.974c1.571 0 2.457 1.218 2.457 2.247 0 1.03-.886 2.258-2.457 2.258Zm12.949-1.879c-1.515 0-3.086.63-3.737 2.006l1.863.724c.392-.724 1.133-.966 1.907-.966 1.089 0 2.188.61 2.199 1.69v.137c-.381-.2-1.189-.504-2.188-.504-2.008 0-4.039 1.03-4.039 2.95 0 1.754 1.638 2.888 3.478 2.888 1.403 0 2.188-.588 2.671-1.28h.067v1.018h2.02v-5.03c.011-2.33-1.851-3.633-4.241-3.633Zm-.259 7.193c-.684 0-1.638-.326-1.638-1.113 0-1.008 1.19-1.397 2.222-1.397.92 0 1.358.19 1.907.441-.157 1.208-1.279 2.069-2.491 2.069Zm11.872-6.91-2.401 5.692h-.067l-2.491-5.691h-2.256l3.737 7.959-2.132 4.42h2.188l5.756-12.38h-2.334Zm-18.851 8.4h2.098V17.843h-2.098v13.125Z" fill="#fff"/><path d="M52.558 10.22c0 .882-.28 1.586-.841 2.1-.629.62-1.46.935-2.469.935-.976 0-1.795-.315-2.48-.945-.684-.63-1.02-1.418-1.02-2.342 0-.934.336-1.711 1.02-2.341.685-.63 1.504-.945 2.48-.945.483 0 .943.084 1.38.262.438.179.786.41 1.055.704l-.595.556c-.449-.493-1.055-.745-1.84-.745-.707 0-1.324.23-1.84.703-.516.462-.775 1.071-.775 1.817 0 .745.259 1.354.775 1.816a2.683 2.683 0 0 0 1.84.704c.752 0 1.38-.231 1.885-.704.325-.304.516-.735.561-1.28h-2.446v-.767h3.265c.023.168.045.325.045.472ZM57.73 7.595h-3.063V9.59h2.76v.756h-2.76v1.995h3.063v.777h-3.927v-6.3h3.927v.777ZM61.377 13.118h-.864V7.595h-1.885v-.777h4.623v.777h-1.885v5.523h.011ZM66.606 13.118v-6.3h.864v6.3h-.864ZM71.309 13.118h-.864V7.595H68.56v-.777h4.623v.777h-1.886v5.523h.012ZM81.946 12.3c-.662.64-1.481.955-2.468.955-.988 0-1.807-.315-2.47-.956a3.117 3.117 0 0 1-.986-2.33c0-.914.325-1.702.987-2.332.662-.64 1.481-.955 2.469-.955.976 0 1.795.315 2.468.955.662.64.999 1.418.999 2.331-.011.924-.337 1.701-.999 2.331Zm-4.297-.526c.493.473 1.11.704 1.829.704.718 0 1.335-.231 1.829-.704.493-.472.751-1.07.751-1.806 0-.735-.247-1.333-.752-1.806-.493-.472-1.11-.714-1.828-.714-.719 0-1.336.231-1.83.704-.493.483-.751 1.081-.751 1.816 0 .735.258 1.334.751 1.806ZM84.157 13.118v-6.3h1.055l3.276 4.904h.034l-.034-1.218V6.818h.864v6.3h-.897l-3.423-5.134H85l.033 1.218v3.916h-.875Z" fill="#fff" stroke="#fff" stroke-width=".213" stroke-miterlimit="10"/><path d="M11.061 7.386c-.325.325-.516.83-.516 1.47v23.226c0 .651.19 1.155.516 1.47l.079.074 13.902-13v-.315L11.14 7.313l-.079.073Z" fill="url(#a)"/><path d="m29.678 24.963-4.634-4.337v-.315l4.634-4.336.101.052 5.487 2.92c1.571.829 1.571 2.194 0 3.034L29.78 24.9l-.1.063Z" fill="url(#b)"/><path d="m29.779 24.91-4.735-4.441-13.982 13.083c.517.514 1.37.577 2.334.063L29.78 24.91Z" fill="url(#c)"/><path d="M29.78 16.038 13.387 7.323c-.965-.515-1.818-.452-2.334.063l13.992 13.083 4.735-4.431Z" fill="url(#d)"/><path opacity=".2" d="m29.679 24.805-16.293 8.662c-.909.483-1.728.452-2.244.01l-.079.074.079.074c.527.44 1.335.472 2.244-.01l16.394-8.716-.101-.094Z" fill="#010202"/><path opacity=".12" d="M11.062 33.404c-.325-.326-.516-.83-.516-1.47v.157c0 .651.19 1.155.516 1.47l.079-.073-.079-.084ZM35.266 21.834l-5.599 2.971.101.095 5.487-2.92c.785-.42 1.178-.965 1.178-1.511-.056.493-.449.987-1.167 1.365Z" fill="#010202"/><path opacity=".25" d="m13.386 7.47 21.881 11.634c.707.378 1.111.861 1.178 1.365 0-.546-.392-1.102-1.178-1.512L13.387 7.323c-1.572-.83-2.85-.136-2.85 1.544v.157c0-1.69 1.29-2.383 2.85-1.554Z" fill="#fff"/><defs><linearGradient id="a" x1="23.808" y1="8.614" x2="6.225" y2="27.404" gradientUnits="userSpaceOnUse"><stop stop-color="#00A0FF"/><stop offset=".007" stop-color="#00A1FF"/><stop offset=".26" stop-color="#00BEFF"/><stop offset=".512" stop-color="#00D2FF"/><stop offset=".76" stop-color="#00DFFF"/><stop offset="1" stop-color="#00E3FF"/></linearGradient><linearGradient id="b" x1="37.313" y1="20.47" x2="10.162" y2="20.47" gradientUnits="userSpaceOnUse"><stop stop-color="#FFE000"/><stop offset=".409" stop-color="#FFBD00"/><stop offset=".775" stop-color="orange"/><stop offset="1" stop-color="#FF9C00"/></linearGradient><linearGradient id="c" x1="27.206" y1="22.88" x2="3.362" y2="48.36" gradientUnits="userSpaceOnUse"><stop stop-color="#FF3A44"/><stop offset="1" stop-color="#C31162"/></linearGradient><linearGradient id="d" x1="7.537" y1="-.346" x2="18.185" y2="11.032" gradientUnits="userSpaceOnUse"><stop stop-color="#32A071"/><stop offset=".069" stop-color="#2DA771"/><stop offset=".476" stop-color="#15CF74"/><stop offset=".801" stop-color="#06E775"/><stop offset="1" stop-color="#00F076"/></linearGradient></defs></svg>