<svg width="191" height="54" fill="none" xmlns="http://www.w3.org/2000/svg"><rect x=".146" y=".414" width="190.854" height="52.972" rx="11.685" fill="#fff"/><path d="M95.759 28.547c-3.326 0-6.043 2.37-6.043 5.628 0 3.244 2.717 5.628 6.043 5.628 3.325 0 6.043-2.384 6.043-5.628 0-3.258-2.718-5.628-6.043-5.628Zm0 9.044c-1.826 0-3.397-1.403-3.397-3.416 0-2.026 1.57-3.417 3.397-3.417 1.825 0 3.396 1.39 3.396 3.417 0 2.013-1.585 3.416-3.396 3.416Zm-13.19-9.044c-3.326 0-6.043 2.37-6.043 5.628 0 3.244 2.717 5.628 6.043 5.628 3.325 0 6.043-2.384 6.043-5.628 0-3.258-2.718-5.628-6.043-5.628Zm0 9.044c-1.826 0-3.397-1.403-3.397-3.416 0-2.026 1.571-3.417 3.397-3.417 1.825 0 3.396 1.39 3.396 3.417 0 2.013-1.57 3.416-3.396 3.416Zm-15.68-7.31v2.384h6.113c-.184 1.338-.665 2.33-1.387 3.006-.892.834-2.278 1.748-4.713 1.748-3.764 0-6.708-2.834-6.708-6.356 0-3.523 2.944-6.357 6.708-6.357 2.024 0 3.51.742 4.6 1.708l1.797-1.681c-1.528-1.364-3.552-2.41-6.41-2.41-5.152 0-9.483 3.92-9.483 8.753 0 4.82 4.33 8.754 9.482 8.754 2.788 0 4.883-.848 6.524-2.45 1.684-1.576 2.208-3.801 2.208-5.589 0-.556-.042-1.073-.142-1.497h-8.59v-.013Zm64.123 1.854c-.496-1.258-2.024-3.588-5.152-3.588-3.099 0-5.675 2.277-5.675 5.628 0 3.152 2.548 5.628 5.972 5.628 2.76 0 4.359-1.576 5.01-2.49l-2.052-1.284c-.679.94-1.613 1.562-2.958 1.562-1.344 0-2.306-.582-2.915-1.708l8.053-3.112-.283-.636Zm-8.209 1.88c-.07-2.171 1.798-3.284 3.142-3.284 1.047 0 1.939.49 2.236 1.192l-5.378 2.093Zm-6.538 5.457h2.646V22.918h-2.646v16.554Zm-4.331-9.668h-.099c-.594-.662-1.726-1.257-3.17-1.257-3.014 0-5.774 2.476-5.774 5.654 0 3.152 2.76 5.615 5.774 5.615 1.43 0 2.576-.596 3.17-1.284h.085v.808c0 2.158-1.231 3.31-3.212 3.31-1.614 0-2.618-1.086-3.029-2l-2.307.901c.666 1.496 2.42 3.324 5.336 3.324 3.099 0 5.717-1.708 5.717-5.867V28.891h-2.505v.914h.014Zm-3.042 7.787c-1.826 0-3.354-1.43-3.354-3.39 0-1.986 1.528-3.43 3.354-3.43 1.797 0 3.212 1.457 3.212 3.43.014 1.96-1.401 3.39-3.212 3.39Zm34.517-14.673h-6.326v16.554h2.646v-6.277h3.694c2.929 0 5.802-1.987 5.802-5.139 0-3.151-2.901-5.138-5.816-5.138Zm.056 7.973h-3.75v-5.682h3.75c1.982 0 3.1 1.536 3.1 2.834s-1.118 2.848-3.1 2.848Zm16.332-2.371c-1.911 0-3.892.794-4.713 2.53l2.35.913c.495-.914 1.429-1.218 2.405-1.218 1.373 0 2.76.768 2.774 2.132v.172c-.481-.252-1.5-.636-2.759-.636-2.534 0-5.095 1.298-5.095 3.722 0 2.211 2.066 3.642 4.387 3.642 1.769 0 2.76-.742 3.368-1.616h.085v1.284h2.548v-6.343c.014-2.94-2.336-4.582-5.35-4.582Zm-.325 9.071c-.864 0-2.067-.41-2.067-1.403 0-1.272 1.5-1.762 2.802-1.762 1.161 0 1.713.239 2.406.556-.198 1.523-1.613 2.61-3.141 2.61Zm14.973-8.713-3.029 7.177h-.085l-3.142-7.177h-2.844l4.712 10.038-2.689 5.575h2.76l7.26-15.613h-2.943Zm-23.776 10.594h2.646V22.918h-2.646v16.554Z" fill="#000"/><path d="M66.434 13.305c0 1.112-.354 2-1.061 2.648-.793.782-1.84 1.179-3.114 1.179-1.231 0-2.264-.397-3.127-1.192-.864-.795-1.288-1.788-1.288-2.953 0-1.179.424-2.159 1.288-2.953.863-.795 1.896-1.192 3.127-1.192.609 0 1.189.106 1.74.33.553.226.992.517 1.331.888l-.75.702c-.566-.622-1.33-.94-2.32-.94-.892 0-1.67.291-2.322.887-.65.583-.976 1.35-.976 2.291 0 .94.325 1.708.976 2.291s1.43.887 2.321.887c.948 0 1.74-.29 2.378-.887.41-.384.65-.927.707-1.616H62.26v-.966h4.118c.029.212.057.41.057.596ZM72.957 9.994h-3.863v2.516h3.481v.953h-3.481v2.517h3.863v.98h-4.953V9.013h4.953v.98ZM77.557 16.96h-1.09V9.993H74.09v-.98h5.83v.98h-2.377v6.965h.014ZM84.152 16.96V9.013h1.09v7.945h-1.09ZM90.082 16.96h-1.09V9.993h-2.377v-.98h5.831v.98h-2.378v6.965h.014ZM103.498 15.927c-.835.808-1.868 1.205-3.114 1.205-1.245 0-2.278-.397-3.113-1.205s-1.246-1.788-1.246-2.94.41-2.146 1.246-2.94c.835-.808 1.868-1.205 3.113-1.205 1.231 0 2.265.397 3.114 1.205.835.808 1.259 1.788 1.259 2.94-.014 1.165-.424 2.145-1.259 2.94Zm-5.42-.662c.622.596 1.4.887 2.306.887.906 0 1.684-.291 2.307-.887.623-.596.948-1.351.948-2.278s-.311-1.682-.948-2.278c-.623-.596-1.401-.9-2.307-.9-.906 0-1.684.29-2.307.887-.622.609-.948 1.364-.948 2.29 0 .928.326 1.683.948 2.279ZM106.287 16.96V9.013h1.33l4.133 6.184h.042l-.042-1.536V9.014h1.089v7.945h-1.132l-4.316-6.475h-.042l.042 1.536v4.94h-1.104Z" fill="#000" stroke="#fff" stroke-width=".268" stroke-miterlimit="10"/><path d="M14.098 9.73c-.41.41-.65 1.046-.65 1.853v29.294c0 .821.24 1.457.65 1.854l.1.093 17.534-16.395v-.397L14.197 9.637l-.099.092Z" fill="url(#a)"/><path d="m37.577 31.898-5.845-5.469v-.398l5.845-5.468.128.066 6.92 3.681c1.981 1.047 1.981 2.768 0 3.828l-6.92 3.681-.128.08Z" fill="url(#b)"/><path d="m37.703 31.832-5.972-5.602-17.633 16.501c.65.65 1.726.729 2.943.08l20.662-10.979Z" fill="url(#c)"/><path d="M37.704 20.642 17.028 9.65c-1.217-.649-2.293-.57-2.944.08l17.648 16.5 5.972-5.588Z" fill="url(#d)"/><path opacity=".2" d="M37.576 31.7 17.027 42.624c-1.146.609-2.18.57-2.83.013l-.1.093.1.092c.665.556 1.684.596 2.83-.013l20.676-10.992-.127-.119Z" fill="#000"/><path opacity=".12" d="M14.096 42.545c-.41-.41-.65-1.046-.65-1.854v.199c0 .821.24 1.457.65 1.854l.1-.093-.1-.106ZM44.624 27.952 37.562 31.7l.128.119 6.92-3.682c.99-.53 1.486-1.218 1.486-1.907-.07.623-.566 1.245-1.472 1.722Z" fill="#000"/><path opacity=".25" d="m17.028 9.835 27.597 14.673c.892.477 1.401 1.086 1.486 1.721 0-.688-.495-1.39-1.486-1.907L17.028 9.65c-1.981-1.046-3.594-.172-3.594 1.947v.199c0-2.132 1.627-3.007 3.594-1.96Z" fill="#fff"/><defs><linearGradient id="a" x1="30.175" y1="11.279" x2="7.999" y2="34.977" gradientUnits="userSpaceOnUse"><stop stop-color="#00A0FF"/><stop offset=".007" stop-color="#00A1FF"/><stop offset=".26" stop-color="#00BEFF"/><stop offset=".512" stop-color="#00D2FF"/><stop offset=".76" stop-color="#00DFFF"/><stop offset="1" stop-color="#00E3FF"/></linearGradient><linearGradient id="b" x1="47.207" y1="26.233" x2="12.963" y2="26.233" gradientUnits="userSpaceOnUse"><stop stop-color="#FFE000"/><stop offset=".409" stop-color="#FFBD00"/><stop offset=".775" stop-color="orange"/><stop offset="1" stop-color="#FF9C00"/></linearGradient><linearGradient id="c" x1="34.458" y1="29.271" x2="4.386" y2="61.408" gradientUnits="userSpaceOnUse"><stop stop-color="#FF3A44"/><stop offset="1" stop-color="#C31162"/></linearGradient><linearGradient id="d" x1="9.65" y1="-.022" x2="23.079" y2="14.328" gradientUnits="userSpaceOnUse"><stop stop-color="#32A071"/><stop offset=".069" stop-color="#2DA771"/><stop offset=".476" stop-color="#15CF74"/><stop offset=".801" stop-color="#06E775"/><stop offset="1" stop-color="#00F076"/></linearGradient></defs></svg>