<svg width="14" height="14" viewBox="0 0 14 14" fill="none" xmlns="http://www.w3.org/2000/svg">
<path d="M7 14C10.866 14 14 10.866 14 7C14 3.13401 10.866 0 7 0C3.13401 0 0 3.13401 0 7C0 10.866 3.13401 14 7 14Z" fill="#338AF3"/>
<path d="M10.956 7.07617H3.04297C3.04297 7.62247 3.51878 8.0653 4.06502 8.0653H4.0321C4.0321 8.61161 4.47493 9.05444 5.02123 9.05444C5.02123 9.60074 5.46407 10.0436 6.01037 10.0436H7.98863C8.53493 10.0436 8.97777 9.60074 8.97777 9.05444C9.52407 9.05444 9.9669 8.61161 9.9669 8.0653H9.93398C10.4802 8.0653 10.956 7.62247 10.956 7.07617Z" fill="#FFDA44"/>
<path d="M9.73998 5.78271C9.73998 7.29548 8.51362 8.52185 7.00085 8.52185C5.48806 8.52185 4.26172 7.29548 4.26172 5.78271" fill="#338AF3"/>
<path d="M9.09262 5.78275L8.23771 6.18489L8.69296 7.01286L7.76464 6.83526L7.64701 7.77304L7.00041 7.0833L6.35378 7.77304L6.23618 6.83526L5.30786 7.01281L5.76308 6.18487L4.9082 5.78275L5.76311 5.38063L5.30786 4.55269L6.23615 4.73026L6.35381 3.79248L7.00041 4.48223L7.64703 3.79248L7.76464 4.73026L8.69299 4.55269L8.23774 5.38066L9.09262 5.78275Z" fill="#FFDA44"/>
<circle cx="7" cy="7" r="6.75" stroke="white" stroke-width="0.5"/>
</svg>
