<svg width="148" height="46" viewBox="0 0 148 46" fill="none" xmlns="http://www.w3.org/2000/svg">
<g clip-path="url(#clip0_787:10046)">
<path d="M54.3815 14.5295C54.3815 14.1344 55.013 13.5029 55.4081 13.5029H67.6287C68.5759 13.5029 70.5515 15.425 70.5515 16.3739V21.9571C70.5515 22.9044 68.5759 24.8021 67.6287 24.8021H57.5407V29.5952C57.5407 29.9368 57.2249 30.2542 56.8816 30.2542H55.0648C54.7232 30.2542 54.3799 29.9384 54.3799 29.5952V14.5295H54.3815ZM67.3923 22.0089V16.2929H57.5423V22.0089H67.3923Z" fill="white"/>
<path d="M73.3717 24.8265C73.3717 23.8776 75.1092 22.2713 76.0047 22.2713H83.5634V19.6367H74.7659C74.4243 19.6367 74.1069 19.321 74.1069 18.9777V17.5819C74.1069 17.2402 74.4226 16.9229 74.7659 16.9229H83.8516C84.747 16.9229 86.6432 18.7397 86.6432 19.6351V27.5371C86.6432 28.4326 84.747 30.2494 83.8516 30.2494H76.1617C75.2663 30.2494 73.3701 28.4326 73.3701 27.5371V24.8265H73.3717ZM83.565 27.5387V24.5625H76.4273V27.5387H83.565Z" fill="white"/>
<path d="M89.8331 30.2525C89.4915 30.2525 89.3069 29.9626 89.3069 29.6728C89.3069 29.5416 89.3862 29.357 89.4381 29.2777L93.3097 24.0361C93.4409 23.8256 93.6514 23.641 93.9153 23.5358C93.6514 23.4564 93.4409 23.2459 93.3097 23.0613L89.4121 17.8991C89.3069 17.7939 89.2275 17.6352 89.2275 17.4781C89.2275 17.2142 89.4121 16.9243 89.7538 16.9243H92.2815L96.1272 22.1918H96.9968L100.868 16.9243H103.37C103.712 16.9243 103.896 17.2142 103.896 17.4781C103.896 17.6368 103.817 17.7939 103.738 17.8991L99.8402 23.0613C99.6815 23.2459 99.471 23.4564 99.2087 23.5358C99.4726 23.641 99.6831 23.8256 99.8402 24.0361L103.686 29.2777C103.738 29.357 103.845 29.5416 103.845 29.6728C103.845 29.9626 103.634 30.2525 103.318 30.2525H100.791L96.9984 24.9057H96.1288L92.3365 30.2525H89.8331Z" fill="white"/>
<path d="M106.217 24.8265C106.217 23.8776 107.955 22.2713 108.85 22.2713H116.409V19.6367H107.612C107.27 19.6367 106.953 19.321 106.953 18.9777V17.5819C106.953 17.2402 107.268 16.9229 107.612 16.9229H116.697C117.593 16.9229 119.489 18.7397 119.489 19.6351V27.5371C119.489 28.4326 117.593 30.2494 116.697 30.2494H109.007C108.112 30.2494 106.216 28.4326 106.216 27.5371V24.8265H106.217ZM116.409 27.5387V24.5625H109.271V27.5387H116.409Z" fill="white"/>
<path d="M126.181 29.5938C126.181 29.9354 125.865 30.2528 125.522 30.2528H123.757C123.441 30.2528 123.098 29.937 123.098 29.5938V19.6385C123.098 18.769 124.994 16.9263 125.889 16.9263H131.816C132.157 16.9263 132.475 17.242 132.475 17.5853V18.9811C132.475 19.3228 132.159 19.6401 131.816 19.6401H126.179V29.5938H126.181Z" fill="white"/>
<path d="M134.794 19.6385C134.794 18.7431 136.69 16.9263 137.586 16.9263H145.434C146.355 16.9263 148.226 18.7431 148.226 19.6385V27.6717C148.226 28.5671 146.33 30.2528 145.434 30.2528H137.586C136.69 30.2528 134.794 28.5412 134.794 27.6458V19.6385ZM145.146 27.5389V19.6369H137.877V27.5389H145.146Z" fill="white"/>
<path d="M19.1967 45.9999C8.61319 45.9999 0.00195312 37.3887 0.00195312 26.8052H7.95577C7.95577 33.0037 12.9982 38.0477 19.1983 38.0477V45.9999H19.1967Z" fill="white"/>
<path d="M19.1964 38.3911V30.4373C25.3949 30.4373 30.4389 25.3949 30.4389 19.1947C30.4389 12.9962 25.3965 7.95219 19.1964 7.95219C12.9978 7.95219 7.95381 12.9946 7.95381 19.1947H0C0 8.61123 8.61123 0 19.1947 0C29.7782 0 38.3895 8.61123 38.3895 19.1947C38.3911 29.7798 29.7815 38.3911 19.1964 38.3911Z" fill="white"/>
</g>
<defs>
<clipPath id="clip0_787:10046">
<rect width="148" height="46" fill="white"/>
</clipPath>
</defs>
</svg>
