<?xml version="1.0" standalone="no"?>
<!DOCTYPE svg PUBLIC "-//W3C//DTD SVG 20010904//EN"
 "http://www.w3.org/TR/2001/REC-SVG-20010904/DTD/svg10.dtd">
<svg version="1.0" xmlns="http://www.w3.org/2000/svg"
 width="615.000000pt" height="615.000000pt" viewBox="0 0 615.000000 615.000000"
 preserveAspectRatio="xMidYMid meet">
<metadata>
Created by potrace 1.14, written by Peter Selinger 2001-2017
</metadata>
<g transform="translate(0.000000,615.000000) scale(0.100000,-0.100000)"
fill="#000000" stroke="none">
<path d="M2849 6146 c-2 -2 -37 -7 -77 -10 -40 -4 -78 -9 -85 -11 -7 -2 -30
-6 -52 -9 -76 -11 -110 -18 -190 -38 -44 -11 -87 -21 -95 -23 -27 -5 -234 -77
-255 -88 -11 -6 -29 -12 -39 -14 -11 -2 -27 -10 -36 -18 -9 -8 -21 -15 -27
-15 -13 0 -174 -83 -253 -130 -65 -38 -239 -158 -258 -177 -8 -7 -30 -26 -50
-41 -68 -52 -174 -152 -278 -263 -58 -63 -151 -182 -209 -269 -27 -41 -53 -76
-57 -78 -5 -2 -8 -8 -8 -14 0 -5 -8 -22 -18 -36 -31 -44 -101 -180 -144 -276
-39 -87 -116 -299 -123 -339 -3 -10 -7 -27 -10 -37 -3 -10 -8 -28 -10 -39 -3
-12 -7 -31 -11 -43 -5 -24 -11 -50 -19 -95 -3 -16 -8 -44 -12 -63 -3 -19 -7
-52 -7 -72 -1 -21 -3 -38 -6 -38 -4 0 -6 -10 -7 -22 -1 -13 -4 -80 -8 -150 -7
-126 -7 -128 14 -129 12 0 239 -1 506 -1 267 0 495 1 508 1 20 1 23 6 23 54 1
108 22 239 60 367 8 30 20 72 26 93 6 20 14 37 19 37 5 0 9 7 9 15 0 18 32 89
43 93 4 2 7 12 7 22 0 10 5 20 11 22 5 2 11 10 12 18 2 13 91 154 107 170 3 3
27 32 55 65 66 80 171 180 235 225 19 14 37 27 40 30 25 28 234 141 325 177
55 21 189 61 229 67 21 4 41 8 45 10 12 8 146 19 250 20 93 2 152 -2 261 -18
106 -15 249 -59 370 -114 77 -35 224 -120 228 -133 2 -5 8 -9 13 -9 35 0 264
-222 342 -332 43 -60 136 -213 137 -223 0 -3 11 -29 24 -57 34 -75 51 -122 74
-208 40 -142 46 -198 47 -390 0 -91 -4 -187 -8 -215 -13 -86 -56 -254 -72
-285 -9 -16 -15 -32 -15 -35 -1 -24 -66 -158 -123 -250 -174 -283 -443 -501
-762 -618 -139 -51 -283 -79 -480 -91 -20 -1 -20 -8 -21 -501 l0 -500 -80 1
c-81 1 -122 6 -209 23 -83 17 -97 21 -235 66 -106 35 -287 138 -404 229 -69
54 -180 168 -244 251 -34 44 -67 85 -72 92 -6 7 -10 17 -10 23 0 5 -3 10 -7
10 -5 0 -13 10 -18 23 -6 12 -23 45 -37 72 -57 109 -108 236 -123 308 -2 10
-6 26 -9 35 -3 9 -8 31 -11 47 -2 17 -7 41 -10 55 -6 26 -15 112 -20 190 -1
25 -3 48 -4 53 0 4 -238 7 -527 7 l-526 0 6 -122 c4 -68 8 -136 11 -153 3 -28
9 -73 20 -150 22 -154 110 -445 185 -610 15 -33 30 -67 34 -75 6 -15 53 -100
95 -175 13 -22 36 -59 52 -83 16 -24 29 -47 29 -53 0 -5 4 -9 8 -9 4 0 16 -15
27 -32 73 -124 407 -476 504 -532 8 -5 25 -18 36 -28 45 -42 257 -176 360
-228 61 -30 112 -57 115 -60 8 -10 210 -86 300 -115 207 -66 395 -100 610
-110 58 -3 115 -7 127 -9 13 -2 23 3 25 13 2 9 3 237 3 506 l-1 490 60 1 c149
2 322 23 466 55 25 6 56 13 70 15 14 3 43 10 65 16 22 7 43 12 48 14 4 1 8 2
10 4 1 1 9 3 17 5 16 4 109 35 180 60 69 25 287 131 365 178 120 71 227 147
344 242 99 81 220 202 319 320 41 50 78 92 81 95 3 3 11 13 16 22 6 10 34 52
63 93 28 42 52 80 52 85 0 6 4 10 9 10 5 0 12 8 15 18 4 9 24 49 46 87 22 39
46 84 54 100 36 76 70 151 72 160 1 6 14 42 29 80 25 64 40 110 64 190 12 40
42 164 47 195 3 14 7 36 9 50 3 14 7 43 10 65 3 22 8 51 10 65 34 199 22 550
-26 795 -31 153 -38 181 -77 300 -14 44 -27 85 -28 90 -13 52 -130 301 -183
390 -20 33 -42 73 -50 88 -8 15 -18 27 -23 27 -4 0 -8 5 -8 11 0 9 -56 95 -70
109 -3 3 -17 21 -30 40 -13 19 -27 37 -30 40 -3 3 -29 34 -59 70 -54 64 -212
225 -281 285 -53 46 -187 147 -255 191 -33 21 -62 41 -65 44 -3 3 -18 12 -35
20 -16 8 -32 18 -35 21 -6 7 -250 128 -305 151 -37 15 -244 88 -255 90 -3 0
-9 2 -15 4 -60 18 -231 54 -241 50 -7 -3 -16 -1 -19 4 -3 5 -13 9 -23 8 -18 0
-90 10 -132 19 -27 6 -466 14 -471 9z"/>
</g>
</svg>
