<svg width="477" height="182" fill="none" xmlns="http://www.w3.org/2000/svg"><g filter="url(#a)"><rect x="26" y="18" width="206" height="129" rx="26.598" fill="#D9F2EC"/></g><path d="M112.763 59.296c.415 0 .779-.053 1.093-.16.319-.106.583-.255.79-.446a1.87 1.87 0 0 0 .479-.71 2.57 2.57 0 0 0 .159-.926c0-.335-.053-.636-.159-.901a1.72 1.72 0 0 0-.463-.679 2.038 2.038 0 0 0-.79-.423 3.627 3.627 0 0 0-1.109-.151h-1.708v4.396h1.708Zm0-5.856c.75 0 1.399.087 1.947.263.553.175 1.008.423 1.364.742.362.314.631.694.806 1.141.176.442.264.93.264 1.468 0 .548-.094 1.05-.28 1.508a3.18 3.18 0 0 1-.83 1.173c-.367.325-.824.58-1.372.766-.543.181-1.176.272-1.899.272h-1.708v4.157h-1.867V53.44h3.575Zm7.326 4.859c.255-.516.564-.92.926-1.213.361-.298.795-.447 1.3-.447.176 0 .341.021.495.064.154.037.292.096.415.176l-.12 1.292c-.021.09-.056.154-.104.192a.285.285 0 0 1-.175.048c-.08 0-.194-.014-.343-.04a2.245 2.245 0 0 0-.471-.048c-.239 0-.452.034-.638.104a1.59 1.59 0 0 0-.495.303 2.094 2.094 0 0 0-.383.487 4.58 4.58 0 0 0-.311.654v5.059h-1.716v-8.14h.998c.18 0 .305.035.375.105.069.063.117.178.143.343l.104 1.06Zm6.058-1.508v8.139h-1.715v-8.14h1.715Zm.288-2.458c0 .154-.032.3-.096.44a1.16 1.16 0 0 1-.247.366 1.33 1.33 0 0 1-.375.247 1.14 1.14 0 0 1-.447.088c-.155 0-.301-.029-.439-.087a1.266 1.266 0 0 1-.351-.248 1.357 1.357 0 0 1-.248-.367 1.123 1.123 0 0 1-.087-.439c0-.16.029-.308.087-.447a1.24 1.24 0 0 1 .599-.606 1.057 1.057 0 0 1 .886 0c.143.059.268.14.375.247.106.101.188.221.247.36.064.138.096.287.096.446Zm1.868 10.597v-8.14h1.037c.234 0 .383.11.447.328l.112.71c.149-.17.303-.324.463-.463a2.784 2.784 0 0 1 1.101-.614c.213-.059.441-.088.686-.088.261 0 .5.037.718.112.218.074.41.18.575.32.17.137.316.305.438.502.123.197.224.417.304.662.122-.282.276-.524.462-.726.187-.202.394-.367.623-.495.229-.127.471-.22.726-.28.261-.063.524-.095.79-.095.436 0 .824.07 1.165.208.346.138.636.34.87.606.239.26.42.583.542.966.123.383.184.819.184 1.308v5.179h-1.716V59.75c0-.574-.125-1.005-.375-1.292-.245-.293-.609-.44-1.093-.44-.218 0-.423.038-.614.112a1.441 1.441 0 0 0-.846.87c-.08.213-.12.463-.12.75v5.179h-1.715V59.75c0-.596-.12-1.032-.36-1.308-.239-.282-.59-.423-1.053-.423-.319 0-.614.082-.885.247a2.8 2.8 0 0 0-.751.662v6h-1.715Zm18.585-4.987c0-.288-.043-.554-.128-.798a1.78 1.78 0 0 0-.359-.647 1.585 1.585 0 0 0-.598-.43 1.951 1.951 0 0 0-.814-.16c-.623 0-1.112.178-1.468.535-.357.356-.583.856-.679 1.5h4.046Zm-4.093 1.053c.021.463.093.864.215 1.205.122.335.285.614.487.838.207.223.452.39.734.502.287.107.606.16.957.16.335 0 .625-.037.87-.112.245-.08.458-.165.638-.255.181-.096.336-.181.463-.256a.677.677 0 0 1 .351-.12c.139 0 .245.054.319.16l.487.63c-.202.24-.431.442-.686.607-.255.165-.527.3-.814.407a4.565 4.565 0 0 1-.886.216 5.677 5.677 0 0 1-.885.071 4.341 4.341 0 0 1-1.572-.279 3.575 3.575 0 0 1-1.253-.838 3.928 3.928 0 0 1-.83-1.364c-.197-.543-.295-1.168-.295-1.875 0-.564.088-1.09.263-1.58.181-.49.436-.915.766-1.277.335-.362.74-.646 1.213-.854.479-.212 1.019-.319 1.62-.319.5 0 .963.083 1.388.248.426.16.793.396 1.101.71.309.313.548.7.719 1.157.175.452.263.968.263 1.548 0 .266-.029.444-.088.534-.058.09-.165.136-.319.136h-5.226Z" fill="#14142B"/><path d="M83.375 107.827c1.266-.149 2.223-.564 2.872-1.245.66-.681.99-1.559.99-2.633 0-.458-.085-.857-.255-1.197a2.857 2.857 0 0 0-.703-.894 4.026 4.026 0 0 0-1.037-.654c-.404-.192-.84-.367-1.309-.527l-.558 7.15Zm-.782-17.57c-.638.063-1.186.196-1.644.398a3.63 3.63 0 0 0-1.133.719c-.298.276-.516.59-.654.941a3.02 3.02 0 0 0-.208 1.117c0 .447.08.84.24 1.181.16.34.377.644.654.91.287.255.622.484 1.005.686.383.191.798.372 1.245.543l.495-6.495Zm1.596 7.165c.766.234 1.521.495 2.266.782.755.276 1.43.638 2.027 1.085a4.972 4.972 0 0 1 1.436 1.644c.372.659.558 1.484.558 2.473 0 .968-.165 1.883-.494 2.745a6.629 6.629 0 0 1-1.42 2.266c-.628.649-1.4 1.181-2.315 1.596-.904.404-1.936.644-3.096.718l-.191 2.554a.933.933 0 0 1-.271.606.834.834 0 0 1-.655.287h-1.276l.271-3.495a11.311 11.311 0 0 1-3.51-.989c-1.075-.521-1.996-1.17-2.762-1.947l1.038-1.58c.095-.138.218-.25.367-.335a.974.974 0 0 1 .51-.144c.224 0 .463.091.718.272.266.18.575.393.926.638.351.234.766.468 1.245.702.478.224 1.042.388 1.691.495l.59-7.74a33.97 33.97 0 0 1-2.217-.75 7.626 7.626 0 0 1-1.963-1.133 5.45 5.45 0 0 1-1.405-1.756c-.35-.702-.526-1.585-.526-2.649 0-.798.154-1.574.463-2.33a6.15 6.15 0 0 1 1.372-2.01c.606-.596 1.351-1.08 2.234-1.453.883-.383 1.894-.6 3.032-.654l.16-2.138a.947.947 0 0 1 .271-.623.859.859 0 0 1 .654-.271h1.277l-.24 3.128c1.118.16 2.086.468 2.905.925.82.447 1.532.969 2.139 1.564l-.83 1.277c-.234.372-.522.559-.862.559-.16 0-.351-.059-.574-.176a79.427 79.427 0 0 0-.766-.415 10.83 10.83 0 0 0-.99-.479 5.889 5.889 0 0 0-1.245-.367l-.542 7.118Zm25.121-9.894v1.516c0 .446-.048.808-.144 1.085-.095.276-.191.51-.287.702l-9.08 18.48c-.16.34-.389.628-.687.862-.287.223-.67.335-1.148.335H95.49l9.256-18.177c.17-.33.34-.628.51-.894.171-.266.362-.52.575-.766H94.357a.765.765 0 0 1-.559-.239.819.819 0 0 1-.24-.575v-2.33h15.752Zm12.674 14.49v-8.394c0-.67.047-1.405.143-2.203l-7.724 10.597h7.581Zm6.159 0v1.979a.701.701 0 0 1-.191.494c-.117.139-.298.208-.543.208h-2.441v5.809h-2.984v-5.809h-9.943c-.244 0-.457-.069-.638-.208a1.037 1.037 0 0 1-.335-.542l-.351-1.756 11.027-14.681h3.224v14.506h3.175Zm18.483-3c0 2.01-.218 3.75-.654 5.218-.426 1.468-1.016 2.686-1.772 3.655-.755.968-1.643 1.686-2.665 2.154a7.831 7.831 0 0 1-3.303.702 7.84 7.84 0 0 1-3.304-.702c-1.021-.468-1.909-1.186-2.665-2.154-.744-.969-1.33-2.187-1.755-3.655-.426-1.468-.638-3.208-.638-5.218 0-2.011.212-3.75.638-5.219.425-1.479 1.011-2.697 1.755-3.654.756-.968 1.644-1.686 2.665-2.155a7.69 7.69 0 0 1 3.304-.718c1.181 0 2.282.24 3.303.718 1.022.469 1.91 1.187 2.665 2.155.756.957 1.346 2.175 1.772 3.654.436 1.468.654 3.208.654 5.219Zm-3.543 0c0-1.703-.138-3.118-.415-4.245-.266-1.139-.622-2.048-1.069-2.73-.447-.68-.963-1.164-1.548-1.451a4.08 4.08 0 0 0-3.654 0c-.575.287-1.086.77-1.532 1.452-.447.68-.804 1.59-1.07 2.729-.266 1.127-.399 2.542-.399 4.245 0 1.702.133 3.122.399 4.261.266 1.127.623 2.032 1.07 2.713.446.68.957 1.165 1.532 1.452a4.085 4.085 0 0 0 3.654 0c.585-.287 1.101-.772 1.548-1.452.447-.681.803-1.586 1.069-2.713.277-1.139.415-2.559.415-4.261Zm6.562 11.578a.913.913 0 0 1-.383.486.986.986 0 0 1-.535.168h-.726l4.724-11.937a.93.93 0 0 1 .343-.455.953.953 0 0 1 .542-.16h.726l-4.691 11.898Zm13.468-8.227-4.484 10.453a.824.824 0 0 1-.216.287c-.08.069-.205.104-.375.104h-1.269l1.501-3.256-3.32-7.588h1.492c.144 0 .253.035.327.104.08.064.139.141.176.231l1.939 4.62c.048.133.09.266.128.399.042.128.082.261.119.399.043-.138.085-.274.128-.407.043-.133.09-.266.144-.399l1.859-4.612a.535.535 0 0 1 .183-.239.503.503 0 0 1 .296-.096h1.372Zm6.221 3.152a2.42 2.42 0 0 0-.128-.798 1.77 1.77 0 0 0-.359-.646 1.583 1.583 0 0 0-.598-.431 1.942 1.942 0 0 0-.814-.16c-.623 0-1.112.178-1.468.535-.357.356-.583.856-.679 1.5h4.046Zm-4.094 1.053c.022.463.094.864.216 1.205.122.335.284.614.487.838.207.223.452.391.734.502.287.107.606.16.957.16.335 0 .625-.037.87-.112.245-.079.457-.165.638-.255.181-.096.335-.181.463-.255a.676.676 0 0 1 .351-.12c.138 0 .245.053.319.16l.487.63a3.101 3.101 0 0 1-.686.606 4.128 4.128 0 0 1-.814.407 4.62 4.62 0 0 1-.886.216 5.653 5.653 0 0 1-.885.072 4.346 4.346 0 0 1-1.572-.28 3.568 3.568 0 0 1-1.253-.838 3.92 3.92 0 0 1-.83-1.364c-.197-.543-.295-1.168-.295-1.875 0-.564.088-1.091.263-1.58.181-.489.436-.915.766-1.277.335-.361.74-.646 1.213-.854a3.963 3.963 0 0 1 1.62-.319c.5 0 .963.083 1.388.248.426.159.793.396 1.101.71.309.314.548.699.718 1.157.176.452.264.968.264 1.548 0 .266-.029.444-.088.534-.059.091-.165.136-.319.136h-5.227Zm11.582.375c-.611.021-1.127.072-1.548.152-.42.074-.76.173-1.021.295-.261.117-.449.258-.567.423a.952.952 0 0 0-.167.542c0 .192.029.357.088.495.064.133.149.245.255.335.112.085.239.149.383.192.149.037.311.056.487.056.447 0 .83-.083 1.149-.248.324-.17.638-.415.941-.734v-1.508Zm-4.548-3.447c.92-.856 2.016-1.285 3.288-1.285.468 0 .883.077 1.244.232.367.149.673.361.918.638.25.277.439.607.567.99.132.377.199.797.199 1.26v5.171h-.766c-.165 0-.29-.024-.375-.072-.085-.053-.157-.157-.215-.311l-.168-.662a8.437 8.437 0 0 1-.614.502 3.98 3.98 0 0 1-.631.367 2.879 2.879 0 0 1-.694.224 3.856 3.856 0 0 1-.814.079c-.33 0-.638-.045-.925-.135a2.074 2.074 0 0 1-.735-.407 2.03 2.03 0 0 1-.494-.686 2.409 2.409 0 0 1-.176-.958c0-.314.083-.62.248-.917.17-.298.446-.564.829-.798.389-.24.897-.437 1.524-.591.633-.154 1.413-.242 2.338-.263v-.543c0-.585-.125-1.021-.375-1.308-.25-.288-.617-.431-1.101-.431-.33 0-.606.042-.83.127a3.53 3.53 0 0 0-.582.264 8.782 8.782 0 0 0-.439.271.754.754 0 0 1-.407.12.525.525 0 0 1-.303-.088.855.855 0 0 1-.2-.231l-.311-.559Zm9.845.375c.256-.516.564-.92.926-1.213.362-.298.795-.447 1.301-.447.175 0 .34.022.494.064a1.3 1.3 0 0 1 .415.176l-.119 1.292c-.022.091-.056.155-.104.192a.287.287 0 0 1-.176.048c-.079 0-.194-.014-.343-.04a2.239 2.239 0 0 0-.471-.048c-.239 0-.452.035-.638.104-.181.069-.346.17-.495.303a2.112 2.112 0 0 0-.383.487 4.756 4.756 0 0 0-.311.654v5.059H180.5v-8.139h.997c.181 0 .306.035.375.104.069.064.117.178.144.343l.103 1.061Z" fill="#48BE9C"/><g filter="url(#b)"><rect x="245" y="18" width="206" height="129" rx="26.598" fill="#fff"/></g><path d="m320.108 59.953-1.58-4.197a11.775 11.775 0 0 1-.391-1.237c-.058.25-.122.482-.191.694-.069.208-.133.391-.192.55l-1.58 4.19h3.934Zm3.535 4.309h-1.444a.625.625 0 0 1-.399-.12.838.838 0 0 1-.232-.311l-.957-2.538h-4.947l-.958 2.538a.762.762 0 0 1-.223.295.597.597 0 0 1-.399.136h-1.445l4.557-11.49h1.891l4.556 11.49Zm6.045-6.136c-.24-.309-.503-.524-.79-.647a2.362 2.362 0 0 0-.934-.183c-.67 0-1.194.247-1.572.742-.377.49-.566 1.215-.566 2.178 0 .5.042.928.127 1.285.085.351.208.638.367.862.16.223.354.385.583.486.229.102.487.152.774.152.436 0 .811-.093 1.125-.28.319-.19.614-.46.886-.805v-3.79Zm1.715-5.674v11.81h-1.037c-.229 0-.375-.11-.439-.327l-.152-.886c-.34.399-.728.72-1.165.965-.43.245-.933.367-1.508.367-.457 0-.872-.09-1.244-.27a2.714 2.714 0 0 1-.958-.807c-.266-.35-.473-.784-.622-1.3-.144-.522-.216-1.117-.216-1.788 0-.606.08-1.167.24-1.683.165-.516.399-.963.702-1.34a3.19 3.19 0 0 1 1.101-.895 3.219 3.219 0 0 1 1.46-.327c.479 0 .886.077 1.221.232.335.149.636.359.902.63v-4.38h1.715Zm9.263 3.67-3.271 8.14h-1.548l-3.272-8.14h1.413c.133 0 .242.035.327.105a.43.43 0 0 1 .175.231l1.804 4.74c.074.223.141.444.199.662.059.218.109.439.152.662.042-.223.093-.441.151-.654.064-.218.133-.442.208-.67l1.835-4.74a.49.49 0 0 1 .176-.24.504.504 0 0 1 .311-.095h1.34ZM346 60.704c-.611.021-1.127.072-1.548.152-.42.074-.76.173-1.021.295-.261.117-.449.258-.566.423a.946.946 0 0 0-.168.542c0 .192.029.357.088.495.064.133.149.245.255.335.112.085.239.15.383.192a2 2 0 0 0 .487.056c.447 0 .83-.083 1.149-.248.324-.17.638-.415.941-.734v-1.508Zm-4.548-3.447c.92-.856 2.016-1.285 3.288-1.285.468 0 .883.077 1.244.232.367.149.673.361.918.638.25.277.439.606.567.99.133.377.199.797.199 1.26v5.17h-.766c-.165 0-.29-.023-.375-.071-.085-.053-.157-.157-.215-.311l-.168-.663a8.169 8.169 0 0 1-.614.503 4.012 4.012 0 0 1-.631.367 2.874 2.874 0 0 1-.694.224 3.84 3.84 0 0 1-.814.08c-.33 0-.638-.046-.925-.136a2.066 2.066 0 0 1-.735-.407 2.03 2.03 0 0 1-.494-.686 2.404 2.404 0 0 1-.176-.958c0-.314.083-.62.248-.918.17-.297.446-.563.829-.797.389-.24.897-.437 1.524-.59.633-.155 1.413-.243 2.338-.264v-.543c0-.585-.125-1.021-.375-1.308-.25-.288-.617-.431-1.101-.431-.33 0-.606.042-.83.127-.223.08-.417.168-.582.264a8.417 8.417 0 0 0-.439.271.755.755 0 0 1-.407.12.521.521 0 0 1-.303-.088.85.85 0 0 1-.2-.231l-.311-.56Zm9.83-.056c.175-.18.356-.343.542-.487a3.65 3.65 0 0 1 .607-.383 3.19 3.19 0 0 1 1.46-.335c.447 0 .838.075 1.173.224.34.149.625.359.853.63.235.271.41.598.527.981.117.378.176.796.176 1.253v5.179h-1.708v-5.179c0-.548-.128-.973-.383-1.276-.25-.304-.633-.455-1.149-.455-.383 0-.739.088-1.069.263a3.671 3.671 0 0 0-.918.718v5.929h-1.715v-8.14h1.037c.234 0 .383.11.447.328l.12.75Zm13.094.519a.873.873 0 0 1-.151.16.333.333 0 0 1-.208.055.542.542 0 0 1-.287-.096 4.502 4.502 0 0 0-.351-.207 2.457 2.457 0 0 0-.487-.215 2.3 2.3 0 0 0-.718-.096c-.372 0-.7.066-.981.2a1.93 1.93 0 0 0-.703.574 2.583 2.583 0 0 0-.423.901c-.09.352-.135.748-.135 1.19 0 .457.05.864.151 1.22.101.357.245.657.431.902.192.244.421.43.686.558.272.128.575.192.91.192.33 0 .599-.04.806-.12.207-.08.38-.167.519-.263.138-.096.255-.184.351-.264a.506.506 0 0 1 .319-.12c.138 0 .245.054.319.16l.487.63c-.197.24-.415.442-.654.607-.24.165-.493.3-.758.407a3.977 3.977 0 0 1-.83.216 5.285 5.285 0 0 1-.87.071c-.505 0-.979-.093-1.42-.279a3.414 3.414 0 0 1-1.149-.822 4.047 4.047 0 0 1-.774-1.316c-.187-.522-.28-1.115-.28-1.78 0-.6.085-1.157.256-1.667.17-.516.417-.96.742-1.333a3.39 3.39 0 0 1 1.221-.87c.484-.212 1.042-.319 1.675-.319.591 0 1.109.096 1.556.288a3.77 3.77 0 0 1 1.205.813l-.455.623Zm7.113 1.556c0-.288-.043-.553-.128-.798-.08-.25-.2-.466-.359-.647a1.588 1.588 0 0 0-.599-.43 1.946 1.946 0 0 0-.813-.16c-.623 0-1.112.178-1.469.535-.356.356-.582.856-.678 1.5h4.046Zm-4.094 1.053c.022.463.093.864.216 1.205.122.335.284.614.486.838.208.223.453.39.735.502.287.107.606.16.957.16.335 0 .625-.037.87-.112.244-.08.457-.165.638-.255.181-.096.335-.181.463-.255a.677.677 0 0 1 .351-.12c.138 0 .245.053.319.16l.487.63a3.09 3.09 0 0 1-.686.606c-.256.165-.527.3-.814.407a4.59 4.59 0 0 1-.886.216 5.668 5.668 0 0 1-.886.071 4.349 4.349 0 0 1-1.572-.279 3.578 3.578 0 0 1-1.252-.838 3.927 3.927 0 0 1-.83-1.364c-.197-.543-.295-1.168-.295-1.875 0-.564.087-1.09.263-1.58.181-.49.436-.915.766-1.277a3.594 3.594 0 0 1 1.213-.854c.479-.212 1.019-.319 1.62-.319.5 0 .962.083 1.388.248.426.16.793.396 1.101.71.309.314.548.7.718 1.157.176.452.264.968.264 1.548 0 .266-.03.444-.088.534-.059.09-.165.136-.319.136h-5.227Zm12.428-2.202c-.239-.309-.503-.524-.79-.647a2.355 2.355 0 0 0-.934-.183c-.67 0-1.194.247-1.571.742-.378.49-.567 1.215-.567 2.178 0 .5.043.928.128 1.285.085.351.207.638.367.862.159.223.353.385.582.486.229.102.487.152.774.152.436 0 .811-.093 1.125-.28.319-.19.615-.46.886-.805v-3.79Zm1.715-5.674v11.81h-1.037c-.229 0-.375-.11-.439-.327l-.151-.886c-.341.399-.729.72-1.165.965-.431.245-.934.367-1.508.367a2.81 2.81 0 0 1-1.245-.27 2.723 2.723 0 0 1-.958-.807c-.266-.35-.473-.784-.622-1.3-.144-.522-.215-1.117-.215-1.788 0-.606.079-1.167.239-1.683.165-.516.399-.963.702-1.34a3.19 3.19 0 0 1 1.101-.895 3.219 3.219 0 0 1 1.46-.327c.479 0 .886.077 1.221.232.335.149.636.359.902.63v-4.38h1.715Z" fill="#14142B"/><path d="M292.679 107.159c1.266-.149 2.223-.564 2.872-1.245.66-.681.99-1.559.99-2.633 0-.458-.086-.857-.256-1.197a2.852 2.852 0 0 0-.702-.894 4.026 4.026 0 0 0-1.037-.654 12.696 12.696 0 0 0-1.309-.527l-.558 7.15Zm-.782-17.57c-.639.063-1.187.196-1.644.398-.458.192-.835.431-1.133.719a2.55 2.55 0 0 0-.654.941 3.007 3.007 0 0 0-.208 1.117c0 .447.08.84.239 1.181.16.34.378.644.655.91.287.255.622.484 1.005.686.383.192.798.372 1.245.543l.495-6.496Zm1.595 7.165c.766.234 1.522.495 2.267.782.755.276 1.43.638 2.026 1.085a4.975 4.975 0 0 1 1.437 1.644c.372.659.558 1.484.558 2.473 0 .968-.165 1.883-.495 2.745a6.62 6.62 0 0 1-1.42 2.266c-.628.649-1.399 1.181-2.314 1.596-.904.404-1.936.644-3.096.718l-.191 2.554a.931.931 0 0 1-.272.606.833.833 0 0 1-.654.287h-1.277l.272-3.495a11.306 11.306 0 0 1-3.511-.989c-1.075-.521-1.995-1.17-2.761-1.947l1.037-1.58c.096-.138.218-.25.367-.335a.976.976 0 0 1 .511-.144c.223 0 .463.091.718.272.266.181.575.393.926.638.351.234.766.468 1.244.702.479.224 1.043.389 1.692.495l.591-7.74a33.926 33.926 0 0 1-2.219-.75 7.65 7.65 0 0 1-1.963-1.133 5.459 5.459 0 0 1-1.404-1.755c-.351-.703-.527-1.586-.527-2.65 0-.798.155-1.574.463-2.33a6.147 6.147 0 0 1 1.373-2.01c.606-.596 1.351-1.08 2.234-1.453.883-.383 1.894-.6 3.032-.654l.16-2.138a.946.946 0 0 1 .271-.623.858.858 0 0 1 .654-.271h1.277l-.24 3.128c1.118.16 2.086.468 2.905.925a9.548 9.548 0 0 1 2.138 1.564l-.83 1.277c-.234.372-.521.559-.861.559-.16 0-.351-.059-.575-.176a83.076 83.076 0 0 0-.766-.415c-.287-.16-.617-.319-.989-.479a5.891 5.891 0 0 0-1.245-.367l-.543 7.118Zm24.164 10.485v2.601h-12.527v-2.601h4.787V92.844c0-.51.016-1.032.048-1.564l-3.686 3.112a1.3 1.3 0 0 1-.495.255c-.16.032-.314.032-.463 0a1.504 1.504 0 0 1-.383-.143 1.122 1.122 0 0 1-.255-.24l-1.069-1.5 6.926-5.952h2.792v20.427h4.325Zm17.828-.639c.373 0 .665.112.878.335.213.213.319.49.319.83v2.075h-15.543v-1.165c0-.234.047-.479.143-.734.096-.256.25-.49.463-.702l7.149-7.166a28.398 28.398 0 0 0 1.612-1.74c.479-.552.883-1.106 1.213-1.659a7.101 7.101 0 0 0 .766-1.676 5.965 5.965 0 0 0 .271-1.803c0-.606-.095-1.138-.287-1.596a2.948 2.948 0 0 0-.766-1.149 2.968 2.968 0 0 0-1.165-.686 4.385 4.385 0 0 0-1.484-.24c-.521 0-1.005.075-1.452.224-.436.149-.83.356-1.181.623a3.698 3.698 0 0 0-.862.957c-.223.362-.388.76-.495 1.197-.159.436-.367.729-.622.878-.245.148-.606.18-1.085.095l-1.804-.319c.16-1.085.458-2.037.894-2.856a6.753 6.753 0 0 1 1.676-2.043 6.865 6.865 0 0 1 2.298-1.245 8.979 8.979 0 0 1 2.824-.43c1.022 0 1.958.153 2.809.462a6.283 6.283 0 0 1 2.218 1.293 5.745 5.745 0 0 1 1.469 2.026c.351.798.526 1.697.526 2.697 0 .852-.127 1.639-.383 2.362a9.323 9.323 0 0 1-1.005 2.075c-.426.66-.926 1.303-1.5 1.93a70.18 70.18 0 0 1-1.788 1.884l-5.553 5.681c.457-.127.915-.229 1.372-.303.468-.074.91-.112 1.325-.112h6.75Zm20.446-8.25c0 2.01-.218 3.75-.655 5.218-.425 1.468-1.016 2.686-1.771 3.655-.755.968-1.644 1.686-2.665 2.154a7.836 7.836 0 0 1-3.304.702 7.835 7.835 0 0 1-3.303-.702c-1.021-.468-1.91-1.186-2.665-2.154-.745-.969-1.33-2.187-1.755-3.655-.426-1.468-.639-3.208-.639-5.218 0-2.011.213-3.75.639-5.219.425-1.478 1.01-2.697 1.755-3.654.755-.968 1.644-1.687 2.665-2.155a7.685 7.685 0 0 1 3.303-.718c1.181 0 2.283.24 3.304.718 1.021.468 1.91 1.187 2.665 2.155.755.957 1.346 2.175 1.771 3.654.437 1.469.655 3.208.655 5.219Zm-3.543 0c0-1.703-.138-3.117-.415-4.245-.266-1.139-.622-2.048-1.069-2.73-.447-.68-.963-1.164-1.548-1.451a4.083 4.083 0 0 0-3.655 0c-.574.287-1.085.77-1.532 1.452-.447.68-.803 1.59-1.069 2.729-.266 1.127-.399 2.542-.399 4.245 0 1.702.133 3.122.399 4.261.266 1.127.622 2.032 1.069 2.713.447.68.958 1.165 1.532 1.452a4.086 4.086 0 0 0 3.655 0c.585-.287 1.101-.772 1.548-1.452.447-.681.803-1.586 1.069-2.713.277-1.139.415-2.559.415-4.261Zm22.057 0c0 2.01-.218 3.75-.654 5.218-.426 1.468-1.016 2.686-1.772 3.655-.755.968-1.643 1.686-2.665 2.154a7.831 7.831 0 0 1-3.303.702 7.84 7.84 0 0 1-3.304-.702c-1.021-.468-1.909-1.186-2.665-2.154-.744-.969-1.33-2.187-1.755-3.655-.426-1.468-.638-3.208-.638-5.218 0-2.011.212-3.75.638-5.219.425-1.478 1.011-2.697 1.755-3.654.756-.968 1.644-1.687 2.665-2.155a7.69 7.69 0 0 1 3.304-.718c1.181 0 2.282.24 3.303.718 1.022.468 1.91 1.187 2.665 2.155.756.957 1.346 2.175 1.772 3.654.436 1.469.654 3.208.654 5.219Zm-3.543 0c0-1.703-.138-3.117-.415-4.245-.266-1.139-.622-2.048-1.069-2.73-.447-.68-.963-1.164-1.548-1.451a4.08 4.08 0 0 0-3.654 0c-.575.287-1.086.77-1.532 1.452-.447.68-.804 1.59-1.07 2.729-.266 1.127-.399 2.542-.399 4.245 0 1.702.133 3.122.399 4.261.266 1.127.623 2.032 1.07 2.713.446.68.957 1.165 1.532 1.452a4.082 4.082 0 0 0 3.654 0c.585-.287 1.101-.772 1.548-1.452.447-.681.803-1.586 1.069-2.713.277-1.139.415-2.559.415-4.261Zm6.562 11.578a.913.913 0 0 1-.383.486.986.986 0 0 1-.535.168h-.726l4.724-11.937a.93.93 0 0 1 .343-.455.953.953 0 0 1 .542-.16h.726l-4.691 11.898Zm13.468-8.227-4.484 10.453a.824.824 0 0 1-.216.287c-.08.069-.205.104-.375.104h-1.269l1.501-3.256-3.32-7.588h1.492c.144 0 .253.035.327.104.08.064.139.141.176.231l1.939 4.62c.048.133.09.266.128.399.042.128.082.261.119.399.043-.138.085-.274.128-.407.043-.133.09-.266.144-.399l1.859-4.612a.535.535 0 0 1 .183-.239.503.503 0 0 1 .296-.096h1.372Zm6.221 3.152a2.42 2.42 0 0 0-.128-.798 1.77 1.77 0 0 0-.359-.646 1.576 1.576 0 0 0-.598-.431 1.942 1.942 0 0 0-.814-.16c-.623 0-1.112.178-1.468.535-.357.356-.583.856-.679 1.5h4.046Zm-4.094 1.053c.022.463.094.864.216 1.205.122.335.285.614.487.838.207.223.452.391.734.502.287.107.606.16.957.16.335 0 .625-.037.87-.112.245-.079.457-.165.638-.255.181-.096.335-.181.463-.255a.676.676 0 0 1 .351-.12c.139 0 .245.053.319.16l.487.63a3.101 3.101 0 0 1-.686.606 4.128 4.128 0 0 1-.814.407 4.603 4.603 0 0 1-.886.216 5.653 5.653 0 0 1-.885.072 4.346 4.346 0 0 1-1.572-.28 3.568 3.568 0 0 1-1.253-.838 3.92 3.92 0 0 1-.83-1.364c-.197-.543-.295-1.168-.295-1.875 0-.564.088-1.091.263-1.58.181-.489.436-.915.766-1.277.335-.361.74-.646 1.213-.853a3.946 3.946 0 0 1 1.62-.32c.5 0 .963.083 1.388.248.426.159.793.396 1.101.71.309.314.548.699.719 1.157.175.452.263.968.263 1.548 0 .266-.029.444-.088.534-.058.091-.165.136-.319.136h-5.227Zm11.582.375c-.611.021-1.127.072-1.548.152-.42.074-.76.173-1.021.295-.261.117-.449.258-.566.423a.946.946 0 0 0-.168.542c0 .192.029.357.088.495.064.133.149.245.255.335.112.085.239.149.383.192.149.037.311.056.487.056.447 0 .83-.083 1.149-.248.324-.17.638-.415.941-.734v-1.508Zm-4.548-3.447c.92-.856 2.016-1.285 3.288-1.285.468 0 .883.078 1.244.232.367.149.673.362.918.638.25.277.439.607.567.99.133.377.199.797.199 1.26v5.171h-.766c-.165 0-.29-.024-.375-.072-.085-.053-.157-.157-.215-.311l-.168-.662a8.228 8.228 0 0 1-.614.502 3.98 3.98 0 0 1-.631.367 2.879 2.879 0 0 1-.694.224c-.245.053-.516.08-.814.08-.33 0-.638-.046-.925-.136a2.074 2.074 0 0 1-.735-.407 2.03 2.03 0 0 1-.494-.686 2.409 2.409 0 0 1-.176-.958c0-.314.083-.62.248-.917.17-.298.446-.564.829-.798.389-.24.897-.437 1.524-.591.633-.154 1.413-.242 2.338-.263v-.543c0-.585-.125-1.021-.375-1.308-.25-.288-.617-.431-1.101-.431-.33 0-.606.042-.83.127a3.53 3.53 0 0 0-.582.264 8.782 8.782 0 0 0-.439.271.754.754 0 0 1-.407.12.518.518 0 0 1-.303-.088.855.855 0 0 1-.2-.231l-.311-.559Zm9.845.375c.256-.516.564-.92.926-1.213.362-.298.795-.447 1.301-.447.175 0 .34.022.494.064a1.3 1.3 0 0 1 .415.176l-.119 1.292c-.022.091-.056.155-.104.192a.287.287 0 0 1-.176.048c-.079 0-.194-.014-.343-.04a2.239 2.239 0 0 0-.471-.048c-.239 0-.452.035-.638.104-.181.069-.346.17-.495.303a2.112 2.112 0 0 0-.383.487 4.756 4.756 0 0 0-.311.654v5.059h-1.715v-8.139h.997c.181 0 .306.035.375.104.069.064.117.178.144.343l.103 1.061Z" fill="#48BE9C"/><defs><filter id="a" x=".127" y=".406" width="257.747" height="180.747" filterUnits="userSpaceOnUse" color-interpolation-filters="sRGB"><feFlood flood-opacity="0" result="BackgroundImageFix"/><feColorMatrix in="SourceAlpha" values="0 0 0 0 0 0 0 0 0 0 0 0 0 0 0 0 0 0 127 0" result="hardAlpha"/><feOffset dy="8.279"/><feGaussianBlur stdDeviation="12.937"/><feColorMatrix values="0 0 0 0 0.116545 0 0 0 0 0.570833 0 0 0 0 0.438041 0 0 0 0.8 0"/><feBlend in2="BackgroundImageFix" result="effect1_dropShadow_114:8468"/><feBlend in="SourceGraphic" in2="effect1_dropShadow_114:8468" result="shape"/></filter><filter id="b" x="219.127" y=".406" width="257.747" height="180.747" filterUnits="userSpaceOnUse" color-interpolation-filters="sRGB"><feFlood flood-opacity="0" result="BackgroundImageFix"/><feColorMatrix in="SourceAlpha" values="0 0 0 0 0 0 0 0 0 0 0 0 0 0 0 0 0 0 127 0" result="hardAlpha"/><feOffset dy="8.279"/><feGaussianBlur stdDeviation="12.937"/><feColorMatrix values="0 0 0 0 0.117647 0 0 0 0 0.572549 0 0 0 0 0.439216 0 0 0 0.8 0"/><feBlend in2="BackgroundImageFix" result="effect1_dropShadow_114:8468"/><feBlend in="SourceGraphic" in2="effect1_dropShadow_114:8468" result="shape"/></filter></defs></svg>