<svg width="477" height="182" fill="none" xmlns="http://www.w3.org/2000/svg"><g filter="url(#a)"><rect x="26" y="18" width="206" height="129" rx="26.598" fill="#D9F2EC"/></g><path d="M112.764 59.296c.415 0 .779-.053 1.093-.16.319-.106.583-.255.79-.446a1.87 1.87 0 0 0 .479-.71 2.57 2.57 0 0 0 .159-.926c0-.335-.053-.636-.159-.901a1.72 1.72 0 0 0-.463-.679 2.038 2.038 0 0 0-.79-.423 3.627 3.627 0 0 0-1.109-.151h-1.708v4.396h1.708Zm0-5.856c.75 0 1.399.087 1.947.263.553.175 1.008.423 1.364.742.362.314.631.694.806 1.141.176.442.264.93.264 1.468 0 .548-.094 1.05-.28 1.508a3.192 3.192 0 0 1-.83 1.173c-.367.325-.824.58-1.372.766-.543.181-1.176.272-1.899.272h-1.708v4.157h-1.867V53.44h3.575Zm7.326 4.859c.255-.516.564-.92.925-1.213.362-.298.796-.447 1.301-.447.176 0 .341.021.495.064.154.037.292.096.415.176l-.12 1.292c-.021.09-.056.154-.104.192a.285.285 0 0 1-.175.048c-.08 0-.194-.014-.343-.04a2.245 2.245 0 0 0-.471-.048c-.239 0-.452.034-.638.104a1.59 1.59 0 0 0-.495.303 2.094 2.094 0 0 0-.383.487 4.58 4.58 0 0 0-.311.654v5.059h-1.716v-8.14h.998c.18 0 .305.035.375.105.069.063.117.178.143.343l.104 1.06Zm6.058-1.508v8.139h-1.715v-8.14h1.715Zm.288-2.458c0 .154-.032.3-.096.44a1.16 1.16 0 0 1-.247.366 1.33 1.33 0 0 1-.375.247 1.14 1.14 0 0 1-.447.088c-.155 0-.301-.029-.439-.087a1.266 1.266 0 0 1-.351-.248 1.357 1.357 0 0 1-.248-.367 1.123 1.123 0 0 1-.087-.439c0-.16.029-.308.087-.447a1.24 1.24 0 0 1 .599-.606 1.057 1.057 0 0 1 .886 0c.143.059.268.14.375.247.106.101.188.221.247.36.064.138.096.287.096.446Zm1.868 10.597v-8.14h1.037c.234 0 .383.11.447.328l.112.71c.149-.17.303-.324.463-.463a2.784 2.784 0 0 1 1.101-.614c.212-.059.441-.088.686-.088.261 0 .5.037.718.112.218.074.41.18.575.32.17.137.316.305.438.502.123.197.224.417.304.662.122-.282.276-.524.462-.726.187-.202.394-.367.623-.495.229-.127.471-.22.726-.28.261-.063.524-.095.79-.095.436 0 .824.07 1.165.208.346.138.636.34.87.606.239.26.42.583.542.966.123.383.184.819.184 1.308v5.179h-1.716V59.75c0-.574-.125-1.005-.375-1.292-.245-.293-.609-.44-1.093-.44-.218 0-.423.038-.614.112-.192.075-.36.184-.503.328a1.546 1.546 0 0 0-.343.542c-.08.213-.12.463-.12.75v5.179h-1.715V59.75c0-.596-.12-1.032-.36-1.308-.239-.282-.59-.423-1.053-.423-.319 0-.614.082-.885.247a2.8 2.8 0 0 0-.751.662v6h-1.715Zm18.585-4.987c0-.288-.043-.554-.128-.798a1.78 1.78 0 0 0-.359-.647 1.585 1.585 0 0 0-.598-.43 1.951 1.951 0 0 0-.814-.16c-.623 0-1.112.178-1.468.535-.357.356-.583.856-.679 1.5h4.046Zm-4.094 1.053c.022.463.094.864.216 1.205.122.335.285.614.487.838.207.223.452.39.734.502.287.107.606.16.957.16.335 0 .625-.037.87-.112.245-.08.457-.165.638-.255.181-.096.335-.181.463-.256a.677.677 0 0 1 .351-.12c.139 0 .245.054.319.16l.487.63c-.202.24-.431.442-.686.607-.255.165-.527.3-.814.407a4.565 4.565 0 0 1-.886.216 5.677 5.677 0 0 1-.885.071 4.341 4.341 0 0 1-1.572-.279 3.575 3.575 0 0 1-1.253-.838 3.928 3.928 0 0 1-.83-1.364c-.197-.543-.295-1.168-.295-1.875 0-.564.088-1.09.263-1.58.181-.49.436-.915.766-1.277.335-.362.74-.646 1.213-.854.479-.212 1.019-.319 1.62-.319.5 0 .963.083 1.388.248.426.16.793.396 1.101.71.309.313.548.7.719 1.157.175.452.263.968.263 1.548 0 .266-.029.444-.088.534-.058.09-.165.136-.319.136h-5.227Z" fill="#14142B"/><path d="M83.374 107.827c1.266-.149 2.224-.564 2.873-1.245.66-.681.99-1.559.99-2.633 0-.458-.086-.857-.256-1.197a2.858 2.858 0 0 0-.702-.894 4.028 4.028 0 0 0-1.038-.654c-.404-.192-.84-.367-1.308-.527l-.559 7.15Zm-.782-17.57c-.638.063-1.186.196-1.644.398a3.63 3.63 0 0 0-1.133.719c-.297.276-.516.59-.654.941a3.02 3.02 0 0 0-.207 1.117c0 .447.08.84.239 1.181.16.34.378.644.654.91.288.255.623.484 1.006.686.383.191.798.372 1.245.543l.494-6.495Zm1.596 7.165c.766.234 1.521.495 2.266.782a7.853 7.853 0 0 1 2.027 1.085 4.97 4.97 0 0 1 1.436 1.644c.373.659.559 1.484.559 2.473 0 .968-.165 1.883-.495 2.745a6.629 6.629 0 0 1-1.42 2.266c-.628.649-1.4 1.181-2.314 1.596-.905.404-1.937.644-3.096.718l-.192 2.554a.932.932 0 0 1-.271.606.834.834 0 0 1-.654.287h-1.277l.271-3.495a11.31 11.31 0 0 1-3.51-.989c-1.075-.521-1.995-1.17-2.761-1.947l1.037-1.58c.096-.138.218-.25.367-.335a.974.974 0 0 1 .51-.144c.224 0 .463.091.719.272.266.18.574.393.925.638.351.234.766.468 1.245.702.479.224 1.043.388 1.692.495l.59-7.74a33.987 33.987 0 0 1-2.218-.75 7.623 7.623 0 0 1-1.963-1.133 5.451 5.451 0 0 1-1.404-1.756c-.351-.702-.527-1.585-.527-2.649 0-.798.154-1.574.463-2.33a6.152 6.152 0 0 1 1.372-2.01c.607-.596 1.351-1.08 2.234-1.453.883-.383 1.894-.6 3.033-.654l.16-2.138a.948.948 0 0 1 .27-.623.859.859 0 0 1 .655-.271h1.276l-.239 3.128c1.117.16 2.085.468 2.905.925.819.447 1.532.969 2.138 1.564l-.83 1.277c-.234.372-.521.559-.862.559-.16 0-.35-.059-.574-.176a79.28 79.28 0 0 0-.766-.415c-.287-.16-.617-.319-.99-.479a5.888 5.888 0 0 0-1.244-.367l-.543 7.118Zm16.998 10.501c.692 0 1.325-.112 1.899-.336a4.398 4.398 0 0 0 1.469-.957 4.14 4.14 0 0 0 .957-1.436 4.766 4.766 0 0 0 .335-1.804c0-.702-.111-1.33-.335-1.883a3.746 3.746 0 0 0-.925-1.42 3.932 3.932 0 0 0-1.437-.878 5.072 5.072 0 0 0-1.835-.319c-.692 0-1.32.117-1.883.351a4.283 4.283 0 0 0-1.42.958 4.211 4.211 0 0 0-.91 1.42 4.678 4.678 0 0 0-.32 1.723c0 .681.096 1.304.288 1.868.191.563.474 1.048.846 1.452.372.393.83.702 1.372.925.553.224 1.187.336 1.899.336Zm-1.26-11.937c-.17.212-.335.414-.495.606l-.447.575a7.012 7.012 0 0 1 3.495-.894c.894 0 1.75.149 2.569.447.82.287 1.538.723 2.155 1.308.627.575 1.127 1.293 1.5 2.155.372.851.558 1.835.558 2.952a7.535 7.535 0 0 1-.59 2.984 7.272 7.272 0 0 1-1.628 2.426c-.702.681-1.548 1.223-2.537 1.628-.979.393-2.064.59-3.256.59-1.191 0-2.266-.191-3.223-.574a7.11 7.11 0 0 1-2.458-1.612 7.231 7.231 0 0 1-1.548-2.522c-.362-.978-.543-2.069-.543-3.271 0-1.043.224-2.133.67-3.272.448-1.138 1.139-2.335 2.075-3.59l5.65-7.58c.17-.224.414-.415.734-.575.329-.16.697-.24 1.101-.24h3.032l-6.814 8.459Zm12.434-2.139c.159-1.085.457-2.037.893-2.856a6.751 6.751 0 0 1 1.676-2.043 6.863 6.863 0 0 1 2.298-1.245 8.982 8.982 0 0 1 2.825-.43c1.021 0 1.947.148 2.777.446.84.287 1.558.692 2.154 1.213a5.207 5.207 0 0 1 1.388 1.867c.33.723.495 1.516.495 2.378 0 .734-.09 1.383-.271 1.947a4.554 4.554 0 0 1-.75 1.468 4.215 4.215 0 0 1-1.181 1.07 7.422 7.422 0 0 1-1.58.717c1.426.415 2.495 1.08 3.208 1.995.712.904 1.069 2.043 1.069 3.415 0 1.107-.208 2.091-.623 2.953a6.474 6.474 0 0 1-1.691 2.186 7.453 7.453 0 0 1-2.474 1.372 9.46 9.46 0 0 1-2.984.463c-1.181 0-2.202-.138-3.064-.415-.862-.287-1.607-.691-2.234-1.213a7 7 0 0 1-1.548-1.915 13.104 13.104 0 0 1-1.053-2.505l1.484-.623c.393-.17.766-.218 1.117-.143.361.074.622.271.782.59.17.341.361.708.574 1.101.213.383.484.74.814 1.07.341.319.755.59 1.245.814.5.212 1.112.319 1.835.319.734 0 1.373-.117 1.915-.351a4.344 4.344 0 0 0 1.373-.926c.372-.383.649-.809.829-1.277a3.83 3.83 0 0 0 .272-1.388c0-.575-.069-1.101-.208-1.58a2.48 2.48 0 0 0-.814-1.245c-.393-.34-.957-.606-1.691-.798-.724-.202-1.676-.303-2.857-.303v-2.473c.968-.011 1.782-.107 2.442-.288.67-.191 1.202-.447 1.596-.766.404-.33.691-.723.861-1.18.181-.458.272-.958.272-1.5 0-.586-.091-1.102-.272-1.549a2.978 2.978 0 0 0-.766-1.117 2.984 2.984 0 0 0-1.149-.686 4.667 4.667 0 0 0-1.484-.223c-.521 0-1.005.074-1.452.223a4.18 4.18 0 0 0-1.181.622c-.34.266-.628.586-.862.958-.234.362-.404.76-.51 1.197-.149.436-.351.729-.607.877-.244.15-.606.181-1.085.096l-1.803-.319Zm21.546.51c0 1.363.362 2.41 1.085 3.145.735.723 1.756 1.085 3.064 1.085.703 0 1.32-.112 1.852-.335.542-.224 1-.522 1.372-.894.372-.383.654-.825.846-1.325.191-.51.287-1.053.287-1.627 0-.67-.106-1.266-.319-1.788a3.691 3.691 0 0 0-.878-1.356 3.644 3.644 0 0 0-1.34-.846 4.69 4.69 0 0 0-1.708-.303c-.649 0-1.234.106-1.755.319-.522.213-.968.51-1.341.894-.372.372-.659.819-.862 1.34a4.56 4.56 0 0 0-.303 1.692Zm5.889 7.134c.213-.266.41-.516.59-.75.181-.244.352-.489.511-.734a6.518 6.518 0 0 1-1.851.91 7.592 7.592 0 0 1-2.17.303c-.83 0-1.628-.138-2.394-.415a6.134 6.134 0 0 1-2.043-1.26 6.344 6.344 0 0 1-1.436-2.075c-.351-.83-.527-1.782-.527-2.857 0-1.01.186-1.963.559-2.856a7.101 7.101 0 0 1 1.596-2.33 7.368 7.368 0 0 1 2.441-1.58c.947-.383 1.995-.575 3.144-.575 1.138 0 2.17.186 3.096.559a6.561 6.561 0 0 1 2.362 1.548 6.76 6.76 0 0 1 1.5 2.378c.351.914.527 1.925.527 3.032a9.65 9.65 0 0 1-.192 1.963 9.652 9.652 0 0 1-.527 1.803c-.223.574-.5 1.144-.829 1.707-.32.554-.681 1.118-1.086 1.692l-5.409 7.756c-.16.234-.399.425-.719.574a2.388 2.388 0 0 1-1.053.224h-3.144l7.054-9.017Zm9.849 9.105a.913.913 0 0 1-.383.486.986.986 0 0 1-.535.168H148l4.724-11.937a.936.936 0 0 1 .343-.455c.16-.106.34-.16.543-.16h.726l-4.692 11.898Zm13.468-8.227-4.484 10.453a.812.812 0 0 1-.216.287c-.079.069-.204.104-.375.104h-1.268l1.5-3.256-3.32-7.588h1.493c.143 0 .252.035.327.104a.57.57 0 0 1 .175.231l1.939 4.62c.048.133.091.266.128.399.042.128.082.261.12.399.042-.138.085-.274.127-.407.043-.133.091-.266.144-.399l1.859-4.612a.53.53 0 0 1 .184-.239.498.498 0 0 1 .295-.096h1.372Zm6.221 3.152a2.42 2.42 0 0 0-.128-.798 1.756 1.756 0 0 0-.359-.646 1.576 1.576 0 0 0-.598-.431 1.938 1.938 0 0 0-.814-.16c-.622 0-1.112.178-1.468.535-.357.356-.583.856-.678 1.5h4.045Zm-4.093 1.053c.021.463.093.864.215 1.205.122.335.285.614.487.838.207.223.452.391.734.502.287.107.606.16.957.16.336 0 .626-.037.87-.112.245-.079.458-.165.639-.255.18-.096.335-.181.462-.255a.676.676 0 0 1 .351-.12c.139 0 .245.053.32.16l.486.63a3.101 3.101 0 0 1-.686.606 4.128 4.128 0 0 1-.814.407 4.611 4.611 0 0 1-.885.216 5.676 5.676 0 0 1-.886.072 4.346 4.346 0 0 1-1.572-.28 3.577 3.577 0 0 1-1.253-.838 3.92 3.92 0 0 1-.83-1.364c-.196-.543-.295-1.168-.295-1.875 0-.564.088-1.091.263-1.58a3.88 3.88 0 0 1 .766-1.277c.336-.361.74-.646 1.213-.854a3.963 3.963 0 0 1 1.62-.319c.5 0 .963.083 1.388.248.426.159.793.396 1.102.71.308.314.548.699.718 1.157.175.452.263.968.263 1.548 0 .266-.029.444-.088.534-.058.091-.165.136-.319.136h-5.226Zm11.582.375a10.34 10.34 0 0 0-1.548.152c-.421.074-.761.173-1.022.295-.26.117-.449.258-.566.423a.946.946 0 0 0-.168.542c0 .192.029.357.088.495.064.133.149.245.255.335.112.085.24.149.383.192.149.037.311.056.487.056.447 0 .83-.083 1.149-.248a3.66 3.66 0 0 0 .942-.734v-1.508Zm-4.549-3.447c.921-.856 2.017-1.285 3.288-1.285.468 0 .883.077 1.245.232.367.149.673.361.917.638.25.277.439.607.567.99.133.377.199.797.199 1.26v5.171h-.766c-.165 0-.29-.024-.375-.072-.085-.053-.157-.157-.215-.311l-.168-.662a8.228 8.228 0 0 1-.614.502 3.893 3.893 0 0 1-.631.367 2.865 2.865 0 0 1-.694.224 3.85 3.85 0 0 1-.814.079c-.329 0-.638-.045-.925-.135a2.061 2.061 0 0 1-.734-.407 2.018 2.018 0 0 1-.495-.686 2.409 2.409 0 0 1-.176-.958c0-.314.083-.62.248-.917.17-.298.447-.564.83-.798.388-.24.896-.437 1.524-.591.633-.154 1.412-.242 2.338-.263v-.543c0-.585-.125-1.021-.375-1.308-.25-.288-.617-.431-1.102-.431-.329 0-.606.042-.829.127-.224.08-.418.168-.583.264a8.782 8.782 0 0 0-.439.271.751.751 0 0 1-.407.12.525.525 0 0 1-.303-.088.835.835 0 0 1-.199-.231l-.312-.559Zm9.846.375c.255-.516.564-.92.925-1.213.362-.298.796-.447 1.301-.447.175 0 .34.022.495.064.154.037.292.096.415.176l-.12 1.292c-.021.091-.056.155-.104.192a.284.284 0 0 1-.175.048c-.08 0-.195-.014-.344-.04a2.222 2.222 0 0 0-.47-.048c-.24 0-.452.035-.639.104-.181.069-.345.17-.494.303a2.06 2.06 0 0 0-.383.487 4.642 4.642 0 0 0-.312.654v5.059h-1.715v-8.139h.997c.181 0 .306.035.375.104.069.064.117.178.144.343l.104 1.061Z" fill="#48BE9C"/><g filter="url(#b)"><rect x="245" y="18" width="206" height="129" rx="26.598" fill="#fff"/></g><path d="m320.107 59.953-1.58-4.197a11.775 11.775 0 0 1-.391-1.237c-.058.25-.122.482-.191.694-.069.208-.133.391-.192.55l-1.579 4.19h3.933Zm3.535 4.309h-1.444a.625.625 0 0 1-.399-.12.835.835 0 0 1-.231-.311l-.958-2.538h-4.947l-.958 2.538a.762.762 0 0 1-.223.295.593.593 0 0 1-.399.136h-1.444l4.556-11.49h1.891l4.556 11.49Zm6.045-6.136c-.239-.309-.503-.524-.79-.647a2.355 2.355 0 0 0-.934-.183c-.67 0-1.194.247-1.572.742-.377.49-.566 1.215-.566 2.178 0 .5.043.928.128 1.285.085.351.207.638.367.862.159.223.353.385.582.486.229.102.487.152.774.152.436 0 .811-.093 1.125-.28.319-.19.615-.46.886-.805v-3.79Zm1.715-5.674v11.81h-1.037c-.229 0-.375-.11-.439-.327l-.151-.886c-.341.399-.729.72-1.165.965-.431.245-.934.367-1.508.367a2.81 2.81 0 0 1-1.245-.27 2.723 2.723 0 0 1-.958-.807c-.266-.35-.473-.784-.622-1.3-.144-.522-.215-1.117-.215-1.788 0-.606.079-1.167.239-1.683.165-.516.399-.963.702-1.34a3.19 3.19 0 0 1 1.101-.895 3.219 3.219 0 0 1 1.46-.327c.479 0 .886.077 1.221.232.335.149.636.359.902.63v-4.38h1.715Zm9.264 3.67-3.272 8.14h-1.548l-3.271-8.14h1.412c.133 0 .242.035.327.105a.432.432 0 0 1 .176.231l1.803 4.74c.074.223.141.444.199.662.059.218.11.439.152.662.043-.223.093-.441.152-.654.064-.218.133-.442.207-.67l1.835-4.74a.49.49 0 0 1 .176-.24.504.504 0 0 1 .311-.095h1.341ZM346 60.704a10.4 10.4 0 0 0-1.548.152c-.421.074-.761.173-1.022.295-.26.117-.449.258-.566.423a.946.946 0 0 0-.168.542c0 .192.029.357.088.495.064.133.149.245.255.335.112.085.24.15.383.192.149.037.312.056.487.056.447 0 .83-.083 1.149-.248.325-.17.638-.415.942-.734v-1.508Zm-4.549-3.447c.921-.856 2.017-1.285 3.288-1.285.468 0 .883.077 1.245.232.367.149.673.361.917.638.25.277.439.606.567.99.133.377.199.797.199 1.26v5.17h-.766c-.165 0-.29-.023-.375-.071-.085-.053-.157-.157-.215-.311l-.168-.663a8.169 8.169 0 0 1-.614.503 3.958 3.958 0 0 1-.63.367 2.882 2.882 0 0 1-.695.224c-.244.053-.516.08-.814.08-.329 0-.638-.046-.925-.136a2.053 2.053 0 0 1-.734-.407 2.018 2.018 0 0 1-.495-.686 2.404 2.404 0 0 1-.176-.958c0-.314.083-.62.248-.918.17-.297.447-.563.83-.797.388-.24.896-.437 1.524-.59.633-.155 1.412-.243 2.338-.264v-.543c0-.585-.125-1.021-.375-1.308-.25-.288-.617-.431-1.102-.431a2.34 2.34 0 0 0-.829.127c-.224.08-.418.168-.583.264a8.417 8.417 0 0 0-.439.271.752.752 0 0 1-.407.12.521.521 0 0 1-.303-.088.83.83 0 0 1-.199-.231l-.312-.56Zm9.83-.056c.175-.18.356-.343.542-.487a3.65 3.65 0 0 1 .607-.383 3.23 3.23 0 0 1 .678-.247c.239-.058.5-.088.782-.088.447 0 .838.075 1.173.224.34.149.625.359.854.63.234.271.409.598.526.981.117.378.176.796.176 1.253v5.179h-1.708v-5.179c0-.548-.127-.973-.383-1.276-.25-.304-.633-.455-1.149-.455-.383 0-.739.088-1.069.263-.324.175-.63.415-.917.718v5.929h-1.716v-8.14h1.037c.234 0 .383.11.447.328l.12.75Zm13.095.519a.91.91 0 0 1-.152.16.333.333 0 0 1-.208.055.542.542 0 0 1-.287-.096 4.502 4.502 0 0 0-.351-.207 2.457 2.457 0 0 0-.487-.215 2.3 2.3 0 0 0-.718-.096c-.372 0-.699.066-.981.2a1.918 1.918 0 0 0-.702.574 2.548 2.548 0 0 0-.423.901 4.748 4.748 0 0 0-.136 1.19c0 .457.051.864.152 1.22.101.357.244.657.431.902.191.244.42.43.686.558.271.128.574.192.909.192.33 0 .599-.04.806-.12.208-.08.381-.167.519-.263s.255-.184.351-.264a.506.506 0 0 1 .319-.12c.139 0 .245.054.319.16l.487.63c-.197.24-.415.442-.654.607-.24.165-.492.3-.758.407a3.977 3.977 0 0 1-.83.216 5.276 5.276 0 0 1-.87.071c-.505 0-.979-.093-1.42-.279a3.434 3.434 0 0 1-1.149-.822 4.047 4.047 0 0 1-.774-1.316c-.186-.522-.279-1.115-.279-1.78 0-.6.085-1.157.255-1.667.17-.516.418-.96.742-1.333a3.39 3.39 0 0 1 1.221-.87c.484-.212 1.042-.319 1.675-.319.591 0 1.11.096 1.556.288a3.76 3.76 0 0 1 1.205.813l-.454.623Zm7.112 1.556c0-.288-.043-.553-.128-.798a1.779 1.779 0 0 0-.359-.647 1.585 1.585 0 0 0-.598-.43 1.951 1.951 0 0 0-.814-.16c-.623 0-1.112.178-1.468.535-.357.356-.583.856-.679 1.5h4.046Zm-4.093 1.053c.021.463.093.864.215 1.205.122.335.285.614.487.838.207.223.452.39.734.502.287.107.606.16.957.16.335 0 .625-.037.87-.112a4.62 4.62 0 0 0 .638-.255c.181-.096.336-.181.463-.255a.677.677 0 0 1 .351-.12c.139 0 .245.053.319.16l.487.63a3.09 3.09 0 0 1-.686.606c-.255.165-.527.3-.814.407a4.572 4.572 0 0 1-.886.216 5.665 5.665 0 0 1-.885.071 4.341 4.341 0 0 1-1.572-.279 3.573 3.573 0 0 1-1.253-.838 3.927 3.927 0 0 1-.83-1.364c-.197-.543-.295-1.168-.295-1.875 0-.564.088-1.09.263-1.58.181-.49.436-.915.766-1.277.335-.362.74-.646 1.213-.854.479-.212 1.019-.319 1.62-.319.5 0 .963.083 1.388.248.426.16.793.396 1.101.71.309.314.548.7.719 1.157.175.452.263.968.263 1.548 0 .266-.029.444-.088.534-.058.09-.165.136-.319.136h-5.226Zm12.427-2.202c-.239-.309-.502-.524-.79-.647a2.353 2.353 0 0 0-.933-.183c-.671 0-1.195.247-1.572.742-.378.49-.567 1.215-.567 2.178 0 .5.043.928.128 1.285.085.351.207.638.367.862.16.223.354.385.582.486.229.102.487.152.774.152.437 0 .812-.093 1.126-.28.319-.19.614-.46.885-.805v-3.79Zm1.716-5.674v11.81H380.5c-.228 0-.375-.11-.438-.327l-.152-.886c-.34.399-.729.72-1.165.965-.431.245-.934.367-1.508.367-.458 0-.872-.09-1.245-.27a2.72 2.72 0 0 1-.957-.807c-.266-.35-.474-.784-.623-1.3a6.772 6.772 0 0 1-.215-1.788c0-.606.08-1.167.239-1.683.165-.516.399-.963.702-1.34.304-.384.671-.682 1.102-.895a3.216 3.216 0 0 1 1.46-.327c.478 0 .885.077 1.221.232.335.149.635.359.901.63v-4.38h1.716Z" fill="#14142B"/><path d="M292.678 107.159c1.266-.149 2.224-.564 2.873-1.245.659-.681.989-1.559.989-2.633 0-.458-.085-.857-.255-1.197a2.88 2.88 0 0 0-.702-.894 4.05 4.05 0 0 0-1.038-.654c-.404-.191-.84-.367-1.308-.527l-.559 7.15Zm-.782-17.57c-.638.063-1.186.196-1.644.398-.457.192-.835.431-1.133.719a2.55 2.55 0 0 0-.654.941 3.026 3.026 0 0 0-.207 1.117c0 .447.079.84.239 1.181.16.34.378.644.654.91.287.255.623.484 1.006.686.383.192.798.372 1.244.543l.495-6.496Zm1.596 7.165c.766.234 1.521.495 2.266.782a7.868 7.868 0 0 1 2.027 1.085 4.972 4.972 0 0 1 1.436 1.644c.372.659.559 1.484.559 2.473 0 .968-.165 1.883-.495 2.745a6.636 6.636 0 0 1-1.42 2.266c-.628.649-1.399 1.181-2.314 1.596-.905.404-1.937.644-3.096.718l-.192 2.554a.93.93 0 0 1-.271.606.833.833 0 0 1-.654.287h-1.277l.271-3.495a11.313 11.313 0 0 1-3.511-.989c-1.074-.521-1.995-1.17-2.761-1.947l1.038-1.58c.096-.138.218-.25.367-.335a.973.973 0 0 1 .51-.144c.224 0 .463.091.719.272.266.181.574.393.925.638.351.234.766.468 1.245.702.479.224 1.043.389 1.692.495l.59-7.74a33.9 33.9 0 0 1-2.218-.75 7.616 7.616 0 0 1-1.963-1.133 5.432 5.432 0 0 1-1.404-1.755c-.352-.703-.527-1.586-.527-2.65a6.1 6.1 0 0 1 .463-2.33 6.144 6.144 0 0 1 1.372-2.01c.607-.596 1.351-1.08 2.234-1.453.883-.383 1.894-.6 3.032-.654l.16-2.138a.95.95 0 0 1 .271-.623.861.861 0 0 1 .655-.271h1.276l-.239 3.128c1.117.16 2.085.468 2.904.925.82.447 1.532.969 2.139 1.564l-.83 1.277c-.234.372-.521.559-.862.559-.159 0-.351-.059-.574-.176a83.076 83.076 0 0 0-.766-.415 10.87 10.87 0 0 0-.99-.479 5.882 5.882 0 0 0-1.244-.367l-.543 7.118Zm24.164 10.485v2.601h-12.528v-2.601h4.788V92.844c0-.51.016-1.032.048-1.564l-3.687 3.112a1.286 1.286 0 0 1-.495.255 1.123 1.123 0 0 1-.462 0 1.49 1.49 0 0 1-.383-.143 1.107 1.107 0 0 1-.256-.24l-1.069-1.5 6.926-5.952h2.793v20.427h4.325Zm18.514 0v2.601h-12.527v-2.601h4.787V92.844c0-.51.016-1.032.048-1.564l-3.686 3.112a1.3 1.3 0 0 1-.495.255c-.16.032-.314.032-.463 0a1.504 1.504 0 0 1-.383-.143 1.122 1.122 0 0 1-.255-.24l-1.069-1.5 6.926-5.952h2.792v20.427h4.325Zm7.04-13.55c0 1.363.362 2.41 1.085 3.145.734.723 1.756 1.085 3.064 1.085.703 0 1.32-.112 1.852-.335.542-.224 1-.522 1.372-.894.372-.383.654-.825.846-1.325.191-.51.287-1.053.287-1.627 0-.67-.106-1.266-.319-1.788a3.69 3.69 0 0 0-.878-1.356 3.643 3.643 0 0 0-1.34-.846 4.688 4.688 0 0 0-1.708-.303c-.649 0-1.234.106-1.755.319-.522.213-.968.51-1.341.894-.372.372-.659.819-.862 1.34a4.561 4.561 0 0 0-.303 1.692Zm5.889 7.134c.213-.266.409-.516.59-.75.181-.244.351-.49.511-.734a6.526 6.526 0 0 1-1.851.91 7.599 7.599 0 0 1-2.171.303 6.984 6.984 0 0 1-2.393-.415 6.144 6.144 0 0 1-2.043-1.26 6.328 6.328 0 0 1-1.436-2.075c-.351-.83-.527-1.782-.527-2.857 0-1.01.186-1.963.559-2.856a7.103 7.103 0 0 1 1.596-2.33 7.368 7.368 0 0 1 2.441-1.58c.947-.383 1.995-.575 3.144-.575 1.138 0 2.17.186 3.096.559a6.56 6.56 0 0 1 2.362 1.548 6.76 6.76 0 0 1 1.5 2.378c.351.915.527 1.925.527 3.032a9.65 9.65 0 0 1-.192 1.963 9.724 9.724 0 0 1-.527 1.803c-.223.574-.5 1.144-.829 1.707-.32.554-.681 1.118-1.086 1.692l-5.41 7.756c-.159.234-.399.425-.718.574a2.388 2.388 0 0 1-1.053.224h-3.144l7.054-9.017Zm12.626-7.133c0 1.362.361 2.41 1.085 3.144.734.723 1.755 1.085 3.064 1.085.702 0 1.319-.112 1.851-.335.543-.224 1-.522 1.372-.894.373-.383.655-.825.846-1.325.192-.51.287-1.053.287-1.627 0-.67-.106-1.266-.319-1.788a3.688 3.688 0 0 0-.877-1.356 3.655 3.655 0 0 0-1.341-.846 4.68 4.68 0 0 0-1.708-.303c-.648 0-1.234.106-1.755.319-.521.213-.968.51-1.34.894-.373.372-.66.819-.862 1.34a4.561 4.561 0 0 0-.303 1.692Zm5.888 7.133c.213-.266.41-.516.591-.75.181-.244.351-.49.51-.734a6.526 6.526 0 0 1-1.851.91 7.592 7.592 0 0 1-2.17.303c-.83 0-1.628-.138-2.394-.415a6.144 6.144 0 0 1-2.043-1.26 6.358 6.358 0 0 1-1.436-2.075c-.351-.83-.527-1.782-.527-2.857 0-1.01.187-1.963.559-2.856a7.103 7.103 0 0 1 1.596-2.33 7.382 7.382 0 0 1 2.442-1.58c.946-.383 1.994-.575 3.143-.575 1.139 0 2.171.186 3.096.559a6.56 6.56 0 0 1 2.362 1.548 6.76 6.76 0 0 1 1.5 2.378c.351.915.527 1.925.527 3.032a9.65 9.65 0 0 1-.192 1.963 9.72 9.72 0 0 1-.526 1.803c-.224.574-.5 1.144-.83 1.707a22.257 22.257 0 0 1-1.085 1.692l-5.41 7.756c-.16.234-.399.425-.718.574-.309.149-.66.224-1.054.224h-3.143l7.053-9.017Zm9.849 9.105a.908.908 0 0 1-.383.486.983.983 0 0 1-.534.168h-.727l4.724-11.937a.942.942 0 0 1 .343-.455.958.958 0 0 1 .543-.16h.726l-4.692 11.898Zm13.469-8.227-4.485 10.453a.81.81 0 0 1-.215.287c-.08.069-.205.104-.375.104h-1.269l1.5-3.256-3.319-7.588h1.492c.143 0 .253.035.327.104a.58.58 0 0 1 .176.231l1.939 4.62c.047.133.09.266.127.399.043.128.083.261.12.399.042-.138.085-.274.128-.407.042-.133.09-.266.143-.399l1.859-4.612a.545.545 0 0 1 .184-.239.5.5 0 0 1 .295-.096h1.373Zm6.22 3.152a2.42 2.42 0 0 0-.127-.798c-.08-.25-.2-.466-.359-.646a1.58 1.58 0 0 0-.599-.431 1.938 1.938 0 0 0-.814-.16c-.622 0-1.111.178-1.468.535-.356.356-.582.856-.678 1.5h4.045Zm-4.093 1.053c.021.463.093.864.215 1.205.123.335.285.614.487.838.208.223.452.391.734.502.288.107.607.16.958.16.335 0 .625-.037.869-.112.245-.079.458-.165.639-.255.181-.096.335-.181.463-.255a.67.67 0 0 1 .351-.12c.138 0 .244.053.319.16l.487.63a3.106 3.106 0 0 1-.687.606 4.12 4.12 0 0 1-.813.407 4.639 4.639 0 0 1-.886.216 5.666 5.666 0 0 1-.886.072 4.346 4.346 0 0 1-1.572-.28 3.577 3.577 0 0 1-1.253-.838 3.919 3.919 0 0 1-.829-1.364c-.197-.543-.296-1.168-.296-1.875 0-.564.088-1.091.264-1.58.181-.489.436-.915.766-1.277a3.598 3.598 0 0 1 1.213-.853 3.938 3.938 0 0 1 1.619-.32c.5 0 .963.083 1.389.248.425.159.792.396 1.101.71.308.314.548.699.718 1.157.176.452.263.968.263 1.548 0 .266-.029.444-.087.534-.059.091-.165.136-.32.136h-5.226Zm11.582.375a10.34 10.34 0 0 0-1.548.152c-.42.074-.761.173-1.021.295-.261.117-.45.258-.567.423a.946.946 0 0 0-.168.542c0 .192.03.357.088.495a.994.994 0 0 0 .256.335c.111.085.239.149.383.192.149.037.311.056.486.056.447 0 .83-.083 1.149-.248.325-.17.639-.415.942-.734v-1.508Zm-4.548-3.447c.92-.856 2.016-1.285 3.287-1.285.468 0 .883.078 1.245.232.367.149.673.362.918.638.25.277.438.607.566.99.133.377.2.797.2 1.26v5.171h-.766c-.165 0-.29-.024-.375-.072-.086-.053-.157-.157-.216-.311l-.168-.662a8.228 8.228 0 0 1-.614.502 3.928 3.928 0 0 1-.63.367 2.879 2.879 0 0 1-.694.224c-.245.053-.516.08-.814.08a3.08 3.08 0 0 1-.926-.136 2.061 2.061 0 0 1-.734-.407 2.045 2.045 0 0 1-.495-.686 2.41 2.41 0 0 1-.175-.958c0-.314.082-.62.247-.917.17-.298.447-.564.83-.798.388-.24.896-.437 1.524-.591.633-.154 1.412-.242 2.338-.263v-.543c0-.585-.125-1.021-.375-1.308-.25-.288-.617-.431-1.101-.431-.33 0-.607.042-.83.127-.224.08-.418.168-.583.264a8.288 8.288 0 0 0-.438.271.756.756 0 0 1-.407.12.52.52 0 0 1-.304-.088.852.852 0 0 1-.199-.231l-.311-.559Zm9.845.375c.255-.516.564-.92.926-1.213.361-.298.795-.447 1.3-.447.176 0 .341.022.495.064.154.037.292.096.415.176l-.12 1.292c-.021.091-.056.155-.104.192a.284.284 0 0 1-.175.048c-.08 0-.194-.014-.343-.04a2.239 2.239 0 0 0-.471-.048c-.239 0-.452.035-.638.104-.181.069-.346.17-.495.303a2.086 2.086 0 0 0-.383.487 4.534 4.534 0 0 0-.311.654v5.059h-1.716v-8.139h.998c.18 0 .305.035.375.104.069.064.117.178.143.343l.104 1.061Z" fill="#48BE9C"/><defs><filter id="a" x=".127" y=".406" width="257.747" height="180.747" filterUnits="userSpaceOnUse" color-interpolation-filters="sRGB"><feFlood flood-opacity="0" result="BackgroundImageFix"/><feColorMatrix in="SourceAlpha" values="0 0 0 0 0 0 0 0 0 0 0 0 0 0 0 0 0 0 127 0" result="hardAlpha"/><feOffset dy="8.279"/><feGaussianBlur stdDeviation="12.937"/><feColorMatrix values="0 0 0 0 0.116545 0 0 0 0 0.570833 0 0 0 0 0.438041 0 0 0 0.8 0"/><feBlend in2="BackgroundImageFix" result="effect1_dropShadow_787:16139"/><feBlend in="SourceGraphic" in2="effect1_dropShadow_787:16139" result="shape"/></filter><filter id="b" x="219.127" y=".406" width="257.747" height="180.747" filterUnits="userSpaceOnUse" color-interpolation-filters="sRGB"><feFlood flood-opacity="0" result="BackgroundImageFix"/><feColorMatrix in="SourceAlpha" values="0 0 0 0 0 0 0 0 0 0 0 0 0 0 0 0 0 0 127 0" result="hardAlpha"/><feOffset dy="8.279"/><feGaussianBlur stdDeviation="12.937"/><feColorMatrix values="0 0 0 0 0.117647 0 0 0 0 0.572549 0 0 0 0 0.439216 0 0 0 0.8 0"/><feBlend in2="BackgroundImageFix" result="effect1_dropShadow_787:16139"/><feBlend in="SourceGraphic" in2="effect1_dropShadow_787:16139" result="shape"/></filter></defs></svg>