<svg width="137" height="42" viewBox="0 0 137 42" fill="none" xmlns="http://www.w3.org/2000/svg">
<rect x="0.5" y="0.5" width="136" height="41" rx="9.5" stroke="white"/>
<path d="M27.9248 20.7575C27.8896 17.7236 30.5687 16.2452 30.698 16.179C29.1821 14.1049 26.832 13.8181 26.0094 13.796C24.0353 13.5974 22.12 14.8993 21.1211 14.8993C20.0988 14.8993 18.5477 13.807 16.8791 13.8401C14.7288 13.8732 12.7194 15.0427 11.6266 16.852C9.35869 20.5479 11.0508 25.9759 13.2247 28.9658C14.3175 30.4331 15.5866 32.0659 17.2552 31.9997C18.8885 31.9335 19.4996 31.0289 21.4619 31.0289C23.4125 31.0289 23.9766 31.9997 25.6804 31.9666C27.4313 31.9446 28.5359 30.4993 29.5817 29.0209C30.839 27.344 31.3443 25.6891 31.3678 25.6119C31.309 25.6008 27.9601 24.3983 27.9248 20.7575Z" fill="white"/>
<path d="M24.7174 11.8328C25.5987 10.8068 26.198 9.40563 26.0217 7.98242C24.7527 8.03759 23.1663 8.80987 22.2497 9.81384C21.4389 10.6965 20.7222 12.1528 20.9102 13.5208C22.332 13.6201 23.8008 12.8478 24.7174 11.8328Z" fill="white"/>
<path d="M48.5231 28.3021H42.9651L41.6255 32.0091H39.2754L44.5397 18.3066H46.9838L52.2481 32.0091H49.8509L48.5231 28.3021ZM43.5409 26.5921H47.9473L45.7735 20.5793H45.7147L43.5409 26.5921Z" fill="white"/>
<path d="M63.6355 27.0111C63.6355 30.1113 61.8612 32.1082 59.1938 32.1082C57.678 32.1082 56.4794 31.4683 55.8449 30.365H55.7979V35.3076H53.6123V22.0134H55.7274V23.6793H55.7626C56.3737 22.6091 57.6662 21.9141 59.1468 21.9141C61.8612 21.9141 63.6355 23.911 63.6355 27.0111ZM61.3911 27.0111C61.3911 24.9921 60.2748 23.6572 58.5828 23.6572C56.9142 23.6572 55.7861 25.0142 55.7861 27.0111C55.7861 29.019 56.9142 30.376 58.5828 30.376C60.2748 30.376 61.3911 29.0521 61.3911 27.0111Z" fill="white"/>
<path d="M75.3368 27.0111C75.3368 30.1113 73.5624 32.1082 70.895 32.1082C69.3792 32.1082 68.1806 31.4683 67.5461 30.365H67.4991V35.3076H65.3252V22.0134H67.4403V23.6793H67.4756C68.0866 22.6091 69.3792 21.9141 70.8598 21.9141C73.5624 21.9141 75.3368 23.911 75.3368 27.0111ZM73.0924 27.0111C73.0924 24.9921 71.9761 23.6572 70.284 23.6572C68.6154 23.6572 67.4873 25.0142 67.4873 27.0111C67.4873 29.019 68.6154 30.376 70.284 30.376C71.9878 30.376 73.0924 29.0521 73.0924 27.0111Z" fill="white"/>
<path d="M83.0813 28.193C83.2458 29.5501 84.6441 30.4437 86.5712 30.4437C88.4161 30.4437 89.7321 29.55 89.7321 28.3254C89.7321 27.2663 88.9331 26.6264 87.0412 26.1851L85.1494 25.7548C82.4702 25.1481 81.2247 23.9676 81.2247 22.0589C81.2247 19.698 83.422 18.0762 86.536 18.0762C89.6146 18.0762 91.7297 19.698 91.8002 22.0589H89.5911C89.4619 20.6909 88.2516 19.8634 86.5007 19.8634C84.7499 19.8634 83.5395 20.7019 83.5395 21.9155C83.5395 22.8864 84.3033 23.449 86.1834 23.8903L87.7933 24.2654C90.7897 24.9274 92.0353 26.0638 92.0353 28.0607C92.0353 30.6202 89.8614 32.231 86.4067 32.231C83.1753 32.231 80.9896 30.6643 80.8486 28.182H83.0813V28.193Z" fill="white"/>
<path d="M96.7591 19.6523V22.0133H98.7802V23.6351H96.7591V29.1403C96.7591 30.0009 97.1586 30.3981 98.0517 30.3981C98.2749 30.3981 98.6275 30.365 98.7685 30.3539V31.9647C98.5217 32.0198 98.0399 32.064 97.5582 32.064C95.4078 32.064 94.5618 31.3027 94.5618 29.372V23.6461H93.0107V22.0243H94.5618V19.6523H96.7591Z" fill="white"/>
<path d="M99.9424 27.0117C99.9424 23.8674 101.917 21.8926 104.983 21.8926C108.062 21.8926 110.025 23.8674 110.025 27.0117C110.025 30.167 108.074 32.1308 104.983 32.1308C101.905 32.1308 99.9424 30.167 99.9424 27.0117ZM107.815 27.0117C107.815 24.8603 106.758 23.5806 104.995 23.5806C103.233 23.5806 102.175 24.8603 102.175 27.0117C102.175 29.174 103.221 30.4428 104.995 30.4428C106.77 30.4428 107.815 29.174 107.815 27.0117Z" fill="white"/>
<path d="M111.848 22.0146H113.928V23.7136H113.975C114.304 22.5883 115.279 21.9043 116.536 21.9043C116.853 21.9043 117.112 21.9484 117.288 21.9815V23.9012C117.112 23.835 116.736 23.7798 116.313 23.7798C114.903 23.7798 114.033 24.6735 114.033 26.0746V31.9991H111.848V22.0146Z" fill="white"/>
<path d="M127.347 29.0747C127.054 30.8841 125.173 32.1308 122.765 32.1308C119.674 32.1308 117.747 30.189 117.747 27.0558C117.747 23.9226 119.674 21.8926 122.671 21.8926C125.608 21.8926 127.465 23.7902 127.465 26.8241V27.5302H119.956V27.6516C119.956 29.3616 121.096 30.4759 122.823 30.4759C124.034 30.4759 124.985 29.9353 125.279 29.0747H127.347ZM119.968 26.0849H125.291C125.244 24.5514 124.198 23.5475 122.682 23.5475C121.178 23.5585 120.085 24.5845 119.968 26.0849Z" fill="white"/>
<path d="M43.2716 7.99414C45.3515 7.99414 46.5736 9.19669 46.5736 11.2598C46.5736 13.367 45.3632 14.5696 43.2716 14.5696H40.7334V7.99414H43.2716ZM41.8262 13.6428H43.1423C44.6112 13.6428 45.4572 12.7823 45.4572 11.2708C45.4572 9.78142 44.5994 8.92088 43.1423 8.92088H41.8262V13.6428Z" fill="white"/>
<path d="M47.7969 12.0856C47.7969 10.4858 48.7487 9.50391 50.288 9.50391C51.8274 9.50391 52.7792 10.4748 52.7792 12.0856C52.7792 13.6963 51.8274 14.6672 50.288 14.6672C48.7487 14.6672 47.7969 13.6963 47.7969 12.0856ZM51.7099 12.0856C51.7099 11.0044 51.1928 10.3755 50.288 10.3755C49.3832 10.3755 48.8662 11.0044 48.8662 12.0856C48.8662 13.1668 49.3715 13.7956 50.288 13.7956C51.2046 13.7956 51.7099 13.1668 51.7099 12.0856Z" fill="white"/>
<path d="M59.4173 14.5799H58.3362L57.2434 10.9171H57.1612L56.0684 14.5799H54.9991L53.542 9.61523H54.5995L55.5513 13.4104H55.6336L56.7264 9.61523H57.7252L58.818 13.4104H58.9002L59.8403 9.61523H60.8861L59.4173 14.5799Z" fill="white"/>
<path d="M62.0947 9.60389H63.1053V10.3982H63.1876C63.4461 9.8466 63.9749 9.51562 64.7622 9.51562C65.9372 9.51562 66.5953 10.1776 66.5953 11.3581V14.5796H65.5495V11.6118C65.5495 10.8175 65.1852 10.4203 64.4096 10.4203C63.6341 10.4203 63.1406 10.9057 63.1406 11.678V14.5796H62.0947V9.60389Z" fill="white"/>
<path d="M68.2539 7.67383H69.2998V14.5802H68.2539V7.67383Z" fill="white"/>
<path d="M70.7568 12.0856C70.7568 10.4858 71.7086 9.50391 73.2479 9.50391C74.7872 9.50391 75.739 10.4748 75.739 12.0856C75.739 13.6963 74.7872 14.6672 73.2479 14.6672C71.6969 14.6672 70.7568 13.6963 70.7568 12.0856ZM74.6697 12.0856C74.6697 11.0044 74.1527 10.3755 73.2479 10.3755C72.3431 10.3755 71.8261 11.0044 71.8261 12.0856C71.8261 13.1668 72.3314 13.7956 73.2479 13.7956C74.1527 13.7956 74.6697 13.1668 74.6697 12.0856Z" fill="white"/>
<path d="M76.8428 13.1674C76.8428 12.2738 77.5478 11.7553 78.8051 11.6891L80.2387 11.6118V11.1816C80.2387 10.652 79.8744 10.3651 79.1576 10.3651C78.5701 10.3651 78.1706 10.5637 78.0531 10.9168H77.0425C77.1483 10.0673 78.0061 9.51562 79.2046 9.51562C80.5325 9.51562 81.2845 10.1335 81.2845 11.1816V14.5796H80.2739V13.8846H80.1917C79.8744 14.381 79.2986 14.6679 78.6054 14.6679C77.5831 14.6568 76.8428 14.0831 76.8428 13.1674ZM80.2504 12.7482V12.329L78.9579 12.4062C78.2293 12.4503 77.9003 12.682 77.9003 13.1233C77.9003 13.5756 78.3116 13.8294 78.8756 13.8294C79.6629 13.8294 80.2504 13.366 80.2504 12.7482Z" fill="white"/>
<path d="M82.6602 12.0869C82.6602 10.5202 83.518 9.52731 84.8575 9.52731C85.5861 9.52731 86.1971 9.84725 86.4791 10.3989H86.5614V7.67383H87.6072V14.5802H86.5966V13.7969H86.5144C86.1971 14.3375 85.5861 14.6685 84.8575 14.6685C83.5062 14.6575 82.6602 13.6645 82.6602 12.0869ZM83.7412 12.0869C83.7412 13.146 84.27 13.7749 85.1513 13.7749C86.0326 13.7749 86.5731 13.135 86.5731 12.0869C86.5731 11.0498 86.0208 10.3989 85.1513 10.3989C84.27 10.4099 83.7412 11.0498 83.7412 12.0869Z" fill="white"/>
<path d="M91.9199 12.0856C91.9199 10.4858 92.8717 9.50391 94.4111 9.50391C95.9504 9.50391 96.9022 10.4748 96.9022 12.0856C96.9022 13.6963 95.9504 14.6672 94.4111 14.6672C92.8717 14.6672 91.9199 13.6963 91.9199 12.0856ZM95.8329 12.0856C95.8329 11.0044 95.3159 10.3755 94.4111 10.3755C93.5063 10.3755 92.9892 11.0044 92.9892 12.0856C92.9892 13.1668 93.4945 13.7956 94.4111 13.7956C95.3159 13.7956 95.8329 13.1668 95.8329 12.0856Z" fill="white"/>
<path d="M98.3105 9.60389H99.3211V10.3982H99.4034C99.6619 9.8466 100.191 9.51562 100.978 9.51562C102.153 9.51562 102.811 10.1776 102.811 11.3581V14.5796H101.765V11.6118C101.765 10.8175 101.401 10.4203 100.625 10.4203C99.8499 10.4203 99.3564 10.9057 99.3564 11.678V14.5796H98.3105V9.60389Z" fill="white"/>
<path d="M108.713 8.36914V9.62685H109.865V10.4543H108.713V13.0138C108.713 13.5324 108.936 13.764 109.465 13.764C109.63 13.764 109.712 13.753 109.865 13.742V14.5584C109.7 14.5804 109.5 14.6135 109.301 14.6135C108.137 14.6135 107.679 14.2274 107.679 13.2676V10.4653H106.845V9.63788H107.679V8.36914H108.713Z" fill="white"/>
<path d="M111.271 7.67383H112.306V10.4099H112.388C112.646 9.85828 113.199 9.51627 113.998 9.51627C115.126 9.51627 115.819 10.1893 115.819 11.3697V14.5802H114.773V11.6125C114.773 10.8181 114.385 10.4209 113.645 10.4209C112.787 10.4209 112.317 10.9284 112.317 11.6787V14.5802H111.271V7.67383Z" fill="white"/>
<path d="M121.92 13.2336C121.685 14.1273 120.839 14.6679 119.629 14.6679C118.113 14.6679 117.185 13.697 117.185 12.1083C117.185 10.5196 118.136 9.51562 119.629 9.51562C121.097 9.51562 121.99 10.4644 121.99 12.02V12.3621H118.254V12.4172C118.289 13.2888 118.83 13.8404 119.664 13.8404C120.298 13.8404 120.733 13.6308 120.921 13.2336H121.92ZM118.254 11.6339H120.921C120.898 10.8506 120.392 10.3431 119.617 10.3431C118.841 10.3431 118.313 10.8616 118.254 11.6339Z" fill="white"/>
</svg>
