<svg width="529" height="311" fill="none" xmlns="http://www.w3.org/2000/svg"><path d="M263.75 304.5a.25.25 0 0 0 .5 0h-.5Zm0-297.5v5.313h.5V7h-.5Zm0 15.938v10.625h.5V22.937h-.5Zm0 21.25v10.624h.5V44.188h-.5Zm0 21.25v10.624h.5V65.439h-.5Zm0 21.25v10.624h.5V86.689h-.5Zm0 21.249v10.626h.5v-10.626h-.5Zm0 21.251v10.625h.5v-10.625h-.5Zm0 21.25v10.624h.5v-10.624h-.5Zm0 21.249v10.626h.5v-10.626h-.5Zm0 21.251v10.624h.5v-10.624h-.5Zm0 21.25v10.625h.5v-10.625h-.5Zm0 21.25v10.624h.5v-10.624h-.5Zm0 21.25v10.625h.5v-10.625h-.5Zm0 21.249v10.626h.5v-10.626h-.5Zm0 21.251v5.312h.5v-5.312h-.5ZM8.75 304.5a.25.25 0 0 0 .5 0h-.5ZM8.75 7v5.313h.5V7h-.5Zm0 15.938v10.625h.5V22.937h-.5Zm0 21.25v10.624h.5V44.188h-.5Zm0 21.25v10.624h.5V65.439h-.5Zm0 21.25v10.624h.5V86.689h-.5Zm0 21.249v10.626h.5v-10.626h-.5Zm0 21.251v10.625h.5v-10.625h-.5Zm0 21.25v10.624h.5v-10.624h-.5Zm0 21.249v10.626h.5v-10.626h-.5Zm0 21.251v10.624h.5v-10.624h-.5Zm0 21.25v10.625h.5v-10.625h-.5Zm0 21.25v10.624h.5v-10.624h-.5Zm0 21.25v10.625h.5v-10.625h-.5Zm0 21.249v10.626h.5v-10.626h-.5Zm0 21.251v5.312h.5v-5.312h-.5ZM518.75 304.5a.25.25 0 0 0 .5 0h-.5Zm0-297.5v5.313h.5V7h-.5Zm0 15.938v10.625h.5V22.937h-.5Zm0 21.25v10.624h.5V44.188h-.5Zm0 21.25v10.624h.5V65.439h-.5Zm0 21.25v10.624h.5V86.689h-.5Zm0 21.249v10.626h.5v-10.626h-.5Zm0 21.251v10.625h.5v-10.625h-.5Zm0 21.25v10.624h.5v-10.624h-.5Zm0 21.249v10.626h.5v-10.626h-.5Zm0 21.251v10.624h.5v-10.624h-.5Zm0 21.25v10.625h.5v-10.625h-.5Zm0 21.25v10.624h.5v-10.624h-.5Zm0 21.25v10.625h.5v-10.625h-.5Zm0 21.249v10.626h.5v-10.626h-.5Zm0 21.251v5.312h.5v-5.312h-.5ZM136.25 304.5a.25.25 0 0 0 .5 0h-.5Zm0-297.5v5.313h.5V7h-.5Zm0 15.938v10.625h.5V22.937h-.5Zm0 21.25v10.624h.5V44.188h-.5Zm0 21.25v10.624h.5V65.439h-.5Zm0 21.25v10.624h.5V86.689h-.5Zm0 21.249v10.626h.5v-10.626h-.5Zm0 21.251v10.625h.5v-10.625h-.5Zm0 21.25v10.624h.5v-10.624h-.5Zm0 21.249v10.626h.5v-10.626h-.5Zm0 21.251v10.624h.5v-10.624h-.5Zm0 21.25v10.625h.5v-10.625h-.5Zm0 21.25v10.624h.5v-10.624h-.5Zm0 21.25v10.625h.5v-10.625h-.5Zm0 21.249v10.626h.5v-10.626h-.5Zm0 21.251v5.312h.5v-5.312h-.5ZM391.25 304.5a.25.25 0 0 0 .5 0h-.5Zm0-297.5v5.313h.5V7h-.5Zm0 15.938v10.625h.5V22.937h-.5Zm0 21.25v10.624h.5V44.188h-.5Zm0 21.25v10.624h.5V65.439h-.5Zm0 21.25v10.624h.5V86.689h-.5Zm0 21.249v10.626h.5v-10.626h-.5Zm0 21.251v10.625h.5v-10.625h-.5Zm0 21.25v10.624h.5v-10.624h-.5Zm0 21.249v10.626h.5v-10.626h-.5Zm0 21.251v10.624h.5v-10.624h-.5Zm0 21.25v10.625h.5v-10.625h-.5Zm0 21.25v10.624h.5v-10.624h-.5Zm0 21.25v10.625h.5v-10.625h-.5Zm0 21.249v10.626h.5v-10.626h-.5Zm0 21.251v5.312h.5v-5.312h-.5ZM72.5 304.5a.25.25 0 0 0 .5 0h-.5ZM72.5 7v5.313h.5V7h-.5Zm0 15.938v10.625h.5V22.937h-.5Zm0 21.25v10.624h.5V44.188h-.5Zm0 21.25v10.624h.5V65.439h-.5Zm0 21.25v10.624h.5V86.689h-.5Zm0 21.249v10.626h.5v-10.626h-.5Zm0 21.251v10.625h.5v-10.625h-.5Zm0 21.25v10.624h.5v-10.624h-.5Zm0 21.249v10.626h.5v-10.626h-.5Zm0 21.251v10.624h.5v-10.624h-.5Zm0 21.25v10.625h.5v-10.625h-.5Zm0 21.25v10.624h.5v-10.624h-.5Zm0 21.25v10.625h.5v-10.625h-.5Zm0 21.249v10.626h.5v-10.626h-.5Zm0 21.251v5.312h.5v-5.312h-.5ZM327.5 304.5a.25.25 0 0 0 .5 0h-.5Zm0-297.5v5.313h.5V7h-.5Zm0 15.938v10.625h.5V22.937h-.5Zm0 21.25v10.624h.5V44.188h-.5Zm0 21.25v10.624h.5V65.439h-.5Zm0 21.25v10.624h.5V86.689h-.5Zm0 21.249v10.626h.5v-10.626h-.5Zm0 21.251v10.625h.5v-10.625h-.5Zm0 21.25v10.624h.5v-10.624h-.5Zm0 21.249v10.626h.5v-10.626h-.5Zm0 21.251v10.624h.5v-10.624h-.5Zm0 21.25v10.625h.5v-10.625h-.5Zm0 21.25v10.624h.5v-10.624h-.5Zm0 21.25v10.625h.5v-10.625h-.5Zm0 21.249v10.626h.5v-10.626h-.5Zm0 21.251v5.312h.5v-5.312h-.5ZM200 304.5a.25.25 0 0 0 .5 0h-.5ZM200 7v5.313h.5V7h-.5Zm0 15.938v10.625h.5V22.937h-.5Zm0 21.25v10.624h.5V44.188h-.5Zm0 21.25v10.624h.5V65.439h-.5Zm0 21.25v10.624h.5V86.689h-.5Zm0 21.249v10.626h.5v-10.626h-.5Zm0 21.251v10.625h.5v-10.625h-.5Zm0 21.25v10.624h.5v-10.624h-.5Zm0 21.249v10.626h.5v-10.626h-.5Zm0 21.251v10.624h.5v-10.624h-.5Zm0 21.25v10.625h.5v-10.625h-.5Zm0 21.25v10.624h.5v-10.624h-.5Zm0 21.25v10.625h.5v-10.625h-.5Zm0 21.249v10.626h.5v-10.626h-.5Zm0 21.251v5.312h.5v-5.312h-.5ZM455 304.5a.25.25 0 0 0 .5 0h-.5ZM455 7v5.313h.5V7h-.5Zm0 15.938v10.625h.5V22.937h-.5Zm0 21.25v10.624h.5V44.188h-.5Zm0 21.25v10.624h.5V65.439h-.5Zm0 21.25v10.624h.5V86.689h-.5Zm0 21.249v10.626h.5v-10.626h-.5Zm0 21.251v10.625h.5v-10.625h-.5Zm0 21.25v10.624h.5v-10.624h-.5Zm0 21.249v10.626h.5v-10.626h-.5Zm0 21.251v10.624h.5v-10.624h-.5Zm0 21.25v10.625h.5v-10.625h-.5Zm0 21.25v10.624h.5v-10.624h-.5Zm0 21.25v10.625h.5v-10.625h-.5Zm0 21.249v10.626h.5v-10.626h-.5Zm0 21.251v5.312h.5v-5.312h-.5Z" fill="#B5B5B5"/><path opacity=".4" d="M9 7h510M9 49.5h510M9 177h510M9 219.5h510M9 92h510M9 134.5h510M9 262h510M9 304.5h510" stroke="#B5B5B5" stroke-width=".5"/><path fill="url(#a)" d="M0 0h529v311H0z"/><path fill-rule="evenodd" clip-rule="evenodd" d="M512.216 145.662a3 3 0 0 0-2.585-3.364l-25.241-3.305a3 3 0 0 0-.779 5.95l17.616 2.306-230.523 141.406a7 7 0 0 1-6.575.398l-123.989-56.77a13 13 0 0 0-11.303.231L13.141 291.326a3 3 0 0 0 2.72 5.348l115.695-58.812a7.002 7.002 0 0 1 6.086-.124l123.99 56.77a12.998 12.998 0 0 0 12.209-.738l231.527-142.022-2.406 18.376a3 3 0 1 0 5.949.778l3.305-25.24Z" fill="url(#b)"/><defs><radialGradient id="a" cx="0" cy="0" r="1" gradientUnits="userSpaceOnUse" gradientTransform="matrix(0 155.5 -264.5 0 264.5 155.5)"><stop offset=".664" stop-color="#fff" stop-opacity="0"/><stop offset="1" stop-color="#fff"/></radialGradient><linearGradient id="b" x1="-6" y1="312.001" x2="524.989" y2="150.47" gradientUnits="userSpaceOnUse"><stop stop-color="#BDBDBD" stop-opacity="0"/><stop offset=".87" stop-color="#DFDFDF" stop-opacity=".42"/></linearGradient></defs></svg>