<svg width="14" height="14" viewBox="0 0 14 14" fill="none" xmlns="http://www.w3.org/2000/svg">
<path d="M7 14C10.866 14 14 10.866 14 7C14 3.13401 10.866 0 7 0C3.13401 0 0 3.13401 0 7C0 10.866 3.13401 14 7 14Z" fill="#FBFBFB"/>
<path d="M13.5646 9.43497C13.846 8.67664 14 7.85644 14 7.0002C14 6.14396 13.846 5.32375 13.5646 4.56543H0.435395C0.154027 5.32375 0 6.14396 0 7.0002C0 7.85644 0.154027 8.67664 0.435395 9.43497L7 10.0437L13.5646 9.43497Z" fill="#0052B4"/>
<path d="M7.00015 13.9998C10.0099 13.9998 12.5757 12.1002 13.5648 9.43457H0.435547C1.4246 12.1002 3.9904 13.9998 7.00015 13.9998Z" fill="#D80027"/>
<circle cx="7" cy="7" r="6.75" stroke="white" stroke-width="0.5"/>
</svg>
